<svg xmlns="http://www.w3.org/2000/svg" viewBox="0 0 736 736">
  <path d="M35.7 3.1c-2 1.6-6.8 4.6-10.6 6.5-7.5 3.7-15 11.1-15.2 14.8-.1 1.2 0 5.8.1 10.3.1 7.2-.4 9.6-4.5 22C3 64.3.7 72.5.4 75c-.3 3.3.3 2 2.4-5 1.6-5.2 4.1-12.9 5.6-17 2-5.5 2.7-9.4 2.8-15.2l.1-7.7 3.1.6c6.9 1.2 13.8 3.2 16 4.7 2.7 1.7 7.1 7 13.8 16.6l4.5 6.5-1.4 5c-4.7 16.7-4.9 18.7-2.4 29.2 1.2 5.4 2.4 10.7 2.6 11.8.3 1.4-.6 2.7-3 4.3-1.9 1.2-4.7 4.1-6.1 6.5-1.5 2.3-4.6 7.1-6.9 10.7s-5.9 9.3-8 12.6c-3.8 6-4 6.1-6.2 4.6-1.8-1.1-3.9-1.3-9-.9-3.7.4-7.1 1.2-7.7 1.8-.8.8-.3 1 1.9.5 11.7-2.3 13.1-1.9 22 6.4 3.5 3.3 6.9 6 7.4 6 2 0 7.5 5.6 11.8 12.2 2.4 3.7 5.6 7.7 7 8.8 1.9 1.4 2.6 3 2.8 6.3.3 4.6 3 10.8 6.3 14.3 1.4 1.4 3.8 2.3 7.7 2.8 6 .7 8.7 1.7 12 4.6 1.1 1 3.8 2.1 5.9 2.5 2.5.4 5.2 1.9 7.3 4 3.4 3.4 3.5 3.4 9.9 2.8 5.8-.5 6.7-.4 9 1.8 1.3 1.2 2.2 2.9 2 3.6-.3.7 0 1.2.7 1 .7-.1 1.2.8 1.1 2 0 1.2.2 2.1.5 2s2.7 1.9 5.2 4.4c2.9 2.9 4.9 5.8 5.3 8 .8 4 1.9 5.5 6.8 9.2 4.1 3 7.7 7.9 12.6 17 3.7 6.7 3.8 7.1 1.6 5.9-1.2-.7-2.4-.1-4.8 2.4-2.3 2.4-7.8 5.3-20.9 10.9-9.8 4.1-21.5 9.3-26 11.5s-8.7 4-9.3 4c-.7 0-2.1-1.6-3.3-3.6-1.8-3-2.5-3.5-5.4-3.2-2.6.2-3.6 1-5 4-1.7 3.4-2 3.6-4.6 2.7-2.7-1-10.8-10.5-10.3-12.2.1-.5-.2-.6-.8-.2-1.2.7-9.5-3.9-16.4-9.2-4-3.1-5.3-4.9-7.2-10.1-1.2-3.4-2.2-6.4-2.2-6.5-.1-1.2-3-7.7-6.5-14.6-4.3-8.6-10.7-16.7-14.8-18.9l-2.4-1.3.2-17.7c.3-19.7-.3-23.7-4.2-28.8-3.8-4.9-4.3-3.6-.6 1.7 2.8 4.1 3 5.2 3.6 16.6.8 13.8-.8 29.3-3 29.3-.7 0-1.8.7-2.5 1.5-1.6 1.9-.7 1.9 3.1 0 2.8-1.5 3.2-1.4 5.8.4 6.9 4.9 14.6 17.2 19.5 30.9 3.2 9 3.2 9.6.3 8.8-1.8-.4-14.5-.6-27.4-.4-1.3 0-2.3.4-2.3.9 0 .6 3.6.7 8.8.3 4.9-.4 12.2-.4 16.3 0 6.7.7 7.6 1 9 3.5.9 1.5 5.9 5.5 11 8.9 9.5 6.1 13.2 9.2 18.1 15 1.9 2.3 2.2 3.2 1.1 3.2-.8 0-15.1-3.8-31.7-8.5-16.7-4.7-30.8-8.5-31.5-8.5-.6 0-1.1.4-1.1.9 0 .4 3.7 1.9 8.3 3.1 4.5 1.3 9.3 2.9 10.7 3.5 1.4.7 3.1 1 3.7.8 2.7-1 1 1.6-6.8 10-4.8 5.1-8.5 8.4-9.2 8-.7-.3-.9-.3-.5.2.4.4-.8 2.7-2.7 5.1-6.3 7.6-3.7 5.9 4.7-3.2 4.6-4.9 10.6-11.2 13.3-14.1l5-5.2 11.8 3.3c8.4 2.4 12.5 4.1 14.4 6 2.3 2.3 2.8 2.5 4.6 1.3 2.2-1.5 7.1-.7 13.7 2.1 5.4 2.2 19.1 11.5 18.3 12.2-1 .9-15.4 5.7-20.9 7-2.3.6-5.9 2.4-8 4.1-5.3 4.2-6.8 4.9-11.6 5.5-4.6.6-9.3 2.7-10.5 4.8-.4.7-3.4 3-6.5 5l-5.7 3.6-12.1-8.5C7.4 333.8 1.4 330 .8 330c-.7 0 4.3 3.9 11 8.6 10.9 7.7 13.9 10.4 11.4 10.4-.5 0-4.2 6.1-8.2 13.6-6.2 11.4-7.9 13.8-10.9 15.2-1.9.9-3.6 2.2-3.9 2.9-.2.7 1.6.1 4-1.2 4.5-2.5 8.2-8 15.6-22.8 2.3-4.8 3.9-6.5 9.1-9.8 3.4-2.2 6.7-3.6 7.3-3.3.6.4.8.2.4-.4-.5-.9 4.2-5.3 8.1-7.6.6-.3 2.9.3 5 1.4 2.1 1 8.5 3.2 14.3 4.6 5.8 1.5 10.8 3 11.2 3.3.4.4-.6 5.1-2.2 10.5s-2.8 10.2-2.5 10.5c.2.4.7 5.7 1 11.7 1 19.8 1.6 27.8 3.1 38.2.8 5.6 1.2 10.7.9 11.2-1.1 1.8-3.4 1.1-14.3-4.4C44.5 414.2 29 410 14.3 410H5.8l.6-2.4c.3-1.4.2-2.8-.4-3.1-1.6-1-4.1-6.3-5-10.8l-.8-4.2-.1 3.5c0 1.9.9 5.5 2.1 8 1.8 3.7 2.2 6.5 2.3 15 .1 11.2-.4 9.6 8.3 27.9 1.9 4.1 7.5 13.5 9.1 15.5 1 1.2.7 13.8-.4 17.3-.3.9-3.3 1.3-10.4 1.3-5.5 0-10.2.4-10.5.8-.2.4 4.8.8 11.2.8 8.8 0 13.1.4 17.1 1.8 11.4 3.9 25.3.9 40.3-8.7 4.3-2.7 5.9-3.3 6.8-2.4 1 .9 1.1.8.6-.8-.8-2.9 5.7-6.9 23.1-14.4 5.2-2.3 8.7-3.1 13-3.1 7.2-.1 19.6-2.2 24.5-4.3 2.8-1.2 4.6-1.3 7-.6 11.2 3.2 22.5-.6 57.3-19.2 12.2-6.4 22.7-10.9 25.8-10.9 1 0 6-1.7 11.1-3.8 7.6-3.2 10.9-4 18.8-4.6 5.3-.4 10.7-.9 12-1.1s7-.8 12.8-1.4c12.8-1.4 18.3-.1 25 5.6l4.4 3.8 13.5-.3c7.5-.2 20.1-.7 28.1-1.2s21-1.2 29-1.5 16.1-.8 18.1-1.1c2.8-.5 5 .2 10.7 3.1 5 2.5 7.7 3.4 8.5 2.7s9.5 2.9 28.5 11.6c21.6 10 27.1 12.9 26.7 14.2-.5 1.5 1.8 2.8 15.5 8.8.3.1 1.6-2.2 2.9-5.3 1.3-3 2.8-5.5 3.5-5.5 2.2 0 12.1 7.6 11.8 9.1-.2.8 0 1.1.4.6 1.2-1.2 6.7 5.6 9.3 11.4 7.3 16.6 25.1 60.2 25.1 61.3-.1 1.3-9.6 6-10.8 5.2-.5-.3-.9.1-.9.9 0 1 .6 1.1 2.5.4 1.4-.5 2.6-.8 2.7-.7.8.8 8.5 20.2 8.5 21.4 0 .7-1.2 1.6-2.7 2-4.8 1-7.3 2.3-7.3 3.9 0 .8-1 1.7-2.2 2-1.9.5-3 2.6-5.6 10.3-1.9 5.3-5.6 16-8.3 23.8-6.7 19.3-8.7 31.1-7 41.2.6 4.2 1.3 8.4 1.5 9.3.1.9 10 16.4 21.9 34.5l21.7 32.8-7.8 3.4c-13 5.7-16.2 7.2-31.2 14.5-8 3.8-14 7.2-13.5 7.4.6.2 7.2-2.7 14.5-6.3 7.4-3.7 17.6-8.4 22.5-10.5 5-2.2 10.2-4.6 11.7-5.4 1.4-.8 3.1-1.5 3.7-1.5s4.4 5.1 8.6 11.4c4.1 6.3 8 11.8 8.7 12.2 1.4.9 1.2.5-7.6-12.9-3.9-6-7-11.2-6.8-11.5.2-.4 1.7-1.2 3.5-1.8s8.2-3.5 14.2-6.4c6.1-2.9 14.3-6.8 18.3-8.6l7.2-3.3 12.7 19.2c6.9 10.6 13 19.8 13.6 20.4.7 1-.1 1.7-2.9 2.9-2.2.9-3.4 1.9-2.7 2.1.6.2 2.6-.3 4.3-1.2 2.7-1.4 3.1-1.4 3.6 0 .3.8 1.1 1.5 1.7 1.5.7 0 .7-.4-.1-1.2-1.7-1.7-1.5-2.3 1.3-3.6 2.2-1 2.6-.8 4.2 1.8.9 1.7 2.1 3 2.6 3s.4-.7-.3-1.5c-1.1-1.3-1-1.8.6-3 1.7-1.2 2.1-1 3.7 1.6 1.9 3 2.7 3.6 2.7 2 0-.5-5.9-9.8-13.1-20.7-15.4-23.2-18.1-27.4-17.6-27.4.4 0 12.1 15.2 18.3 24 5 6.9 14.4 22.7 14.4 24 0 .6.6 1 1.4 1 .7 0 14.4-8.8 30.4-19.5l28.9-19.4 6.2 9.6c4.9 7.5 5.9 9.8 5 10.9-.6.8-1.6 1.4-2.1 1.4s-1.5.6-2.3 1.3c-.7.8-6.1 4.5-12 8.3s-10.3 7-9.8 7.1c1.6.6 40.3-25.4 40.3-26.9 0-.5-1.3 0-3 1.2-1.6 1.2-3.5 1.8-4 1.5-.6-.4-.9-.1-.8.5.2.6-.7 1.9-2 2.7-2.2 1.5-2.3 1.5-2.9-.5-.3-1.2-.9-2.2-1.3-2.2s-1.2-1.2-1.9-2.7c-1-2.3-1-2.9.3-3.8.8-.5 4.7-3.2 8.6-5.8 3.9-2.7 6.9-5.1 6.6-5.4-.2-.3-3.9 1.8-8 4.6-4.2 2.9-8.2 5.4-9 5.7s-2.5-1.4-4.5-4.4l-3.1-4.9-29 19.3c-15.9 10.7-29.4 19.4-29.8 19.4-1.4 0-10.2-16.1-10.2-18.7 0-1.3.3-2.3.8-2.3.6 0 13.6-9.1 15.1-10.5.2-.2-1.2-2.5-3-5l-3.3-4.6 1.8-7.2c2.8-10.8 6.5-23.9 7.5-26.2.5-1.1 1.6-4 2.5-6.5s2.4-5.7 3.3-7.1c11.3-17 11.2-16.9 14.2-16.9 2.2 0 3.7 1 6.7 4.9 11.3 14.5 47.9 57.1 48.2 56.2.2-.6-.7-2.4-2-3.9-1.3-1.6-5.1-6.4-8.6-10.8-3.5-4.3-7.1-8.8-8-9.9s-1.6-2.3-1.4-2.8c.1-.4-.2-.6-.7-.5-1.2.4-24.2-26.8-23.4-27.5.3-.4-1.7-3.3-4.6-6.5-5.1-5.9-5.1-6-3.2-8.3 3.4-4.4 4.5-7.4 5.1-12.9.5-5.4.6-5.6 5-7.7 5.1-2.5 26.7-8.9 27.4-8.2 1 1 3.2 13.9 2.4 13.9-.5 0-.4.6.2 1.3.6.6 2.1 3 3.3 5.1 1.4 2.4 3.5 4.5 5.5 5.3 4.2 1.7 4.1 1-.3-1.6-1.9-1.1-4-3.3-4.6-4.8-1.1-2.6-5-19.7-4.6-19.9 1.8-.8 12.7-9.8 12.3-10.1-.3-.3-3.1 1.5-6.3 4-4.4 3.4-7.5 4.9-12.8 6.1-3.8 1-10.8 3.1-15.4 4.7s-9.1 2.7-9.8 2.5c-.8-.3-1.1-.1-.8.4.5.8-3.3 5.7-3.9 4.8-1.6-2.5-18.2-21.5-21.8-25.1-2.9-2.7-4.6-5.2-4.2-5.9.4-.6.3-.8-.3-.5-1.3.8-4.6-2.7-3.6-3.8.5-.4.3-.5-.3-.2-.6.4-2.2-.5-3.4-1.8l-2.3-2.5 17.9-18.2c9.8-10.1 22.4-22.9 27.9-28.5 5.5-5.7 10.2-10.3 10.5-10.3s2.1 1.5 4 3.3c5.7 5.2 8.4 7.3 7.6 5.9-.5-.8.1-2 1.6-3.1 1.9-1.6 2.4-1.7 3.1-.5.4.8 1.3 1.4 1.8 1.4.6 0 .3-.7-.6-1.6-1.5-1.5-1.5-1.8.1-3.5 1.8-2 2.1-1.9 7.7 2.4l3.7 2.9v-2.5c0-1.5-1-3.1-2.5-4.1-3.1-2.1-3.1-3.7 0-7.4 1.4-1.7 2.5-3.6 2.5-4.3s-1.9-3.3-4.2-5.6l-4.2-4.3 4.4-4.5c2.4-2.4 4.2-4.7 3.9-4.9-.3-.3-4.7 3.7-9.9 8.9l-9.3 9.3-4.3-3.1c-2.4-1.8-4.3-3.7-4.4-4.4 0-.6-.5-1.5-1.2-1.9-.7-.5-.8-.3-.2.7.4.7-1 0-3.2-1.6-2.2-1.7-6.8-5-10.2-7.5s-6-4.8-5.9-5.2 6.2-7 13.6-14.8l13.3-14.1 6.2.7c5.5.6 6.6 1.1 10.9 5.2 6.8 6.6 5.8 4.2-1.6-3.8-4.8-5.2-6.7-8.1-8.1-12.6-1-3.3-2.5-7.3-3.3-8.9-1-2.2.3-1.2 4.6 3.5 3.4 3.6 5.9 7.1 5.6 7.8s0 1 .6.6c.6-.3 2.4.9 4 2.7 1.7 1.9 2.9 2.9 2.7 2.2-.3-1.4-13.6-16.9-22-25.7l-5.7-6 4.2-2.4c2.3-1.3 5.4-3.4 6.8-4.8l2.5-2.4 3.8 14c3.5 13 7.3 22 9.8 23.6.6.4.9.3.6-.2-.2-.5-1.7-3.6-3.3-6.8-3.1-6.6-9.4-30.1-9.5-35.4 0-4.9 2.5-9.4 8.1-14.6 2.7-2.5 4.9-5 4.9-5.6 0-1.6-10.8 8.9-12.6 12.2-.8 1.5-1.4 3.7-1.4 5 0 4.2-1.6 0-1.9-5-.1-3.2-1.1-6.2-3.1-9.2-3.6-5.7-7.3-18.3-9.5-32.5-.9-6.1-2.3-13.6-3.1-16.8s-1.2-6.3-.8-6.9c.4-.7.3-.8-.4-.4s-1.2.1-1.2-.6c0-1.9-3.7-8.7-7.2-13.1-2.6-3.3-2.8-4-1.6-5.5 1.1-1.5 1.1-1.5-.3-.5-1.3 1-2 .4-4.9-4.5-1.9-3.1-4.9-7.9-6.8-10.7-3.3-4.9-3.3-4.9-1.3-6.5l2.1-1.5-2.1-3.4c-1.7-2.9-1.8-3.5-.6-5 .8-.9 1.7-2.4 2.1-3.5.5-1.6 1.3-1.8 5.7-1.2 2.8.4 6.8 1.4 9 2.3 3.1 1.2 4.8 1.3 8.6.4 2.7-.6 6.4-1.3 8.3-1.5 1.9-.3 6.7-1.2 10.5-2.1 3.9-.8 8.2-1.8 9.8-2.1 1.5-.4 2.7-1.1 2.7-1.6 0-.6-.8-.7-1.7-.3-1 .4-4 1.1-6.8 1.6-2.7.5-10.4 2-17 3.3-7.3 1.5-12.3 2.1-13 1.6-.6-.5-3.7-1.6-7-2.4-3.2-.9-6-1.7-6.2-1.9s.6-1.6 1.8-3.1c2-2.5 2-2.8.5-8.9-.9-3.5-2.5-8.2-3.6-10.5-3.6-7.4-2.2-19.2 3.8-31.7 1.5-3.3 4.4-9.5 6.3-13.9 2.9-6.6 3.9-8.1 6.9-9.3 4.2-1.9 9.4-1.2 17.5 2.1 3.2 1.4 6.3 2.2 6.7 2 .4-.3.8-2.1.8-4 0-4.2 6.3-19.5 9.1-22 2.2-2 2.5-4 .7-4.7-.7-.3-6.5-4.2-12.8-8.7-6.3-4.6-13.5-9.7-15.9-11.4-2.5-1.7-5.2-3.9-6.2-4.8-1.5-1.4-1.8-1.4-2.3-.2-.3.8-.1 1.4.4 1.4.8 0 20.2 13.5 31.1 21.7l4.6 3.5-4.3 8.4c-2.3 4.6-4.8 10.9-5.4 14-1 4.6-1.5 5.4-2.8 4.9-8.5-3.6-13.2-4.7-17.8-4.3l-5.1.4-1.3-5c-.7-2.8-2.2-7-3.3-9.3l-2-4.2-4.2 2.9-4.1 2.8-4.4-3.3c-3.2-2.4-5.2-3.2-6.7-2.8-1.8.4-2.3.1-2.3-1.5 0-4.1-4-11.1-9.8-17.3l-6-6.4-.4-7.9c-.3-7-.6-8-3.1-10.2-1.5-1.3-5.8-3.2-9.6-4.4l-6.9-2-7.5-11.3C619.2 90.5 613 79.2 613 76.8c0-.7-1.8-3.6-4-6.3-2.2-2.8-4-5.3-4-5.7 0-.3-1.2-2.5-2.7-4.7l-2.6-4.1-2.6 3.5c-1.3 2-3.8 4.4-5.5 5.4-6.1 3.6-12.7 7.1-13.6 7.1-1.3 0-9.7-12.1-12.1-17.5l-2.1-4.7 4.5-9.2c2.4-5 5-11.6 5.7-14.6 2.2-9.4 2.6-10.3 5.1-12.2 2.4-1.7 18.1-4.8 24.8-4.8 2.2 0 4.6 1 7 2.9 5.7 4.5 8 4.6 12.3.8l3.7-3.3-1.7-4.9c-.8-2.7-1.7-4.4-2-3.7-.2.6.2 2.8.9 4.9 1.1 3.5 1.1 3.7-2.1 6.3-3.9 3.2-5.5 3-10.9-1.7-3.4-2.9-4.6-3.3-7.1-2.8-2.8.6-3 .5-3-2.2 0-1.5-.5-3.5-1.1-4.3-.8-1.1-.9-.4-.6 2.7.5 3.9.3 4.3-1.6 4.4-9.2.5-17.3 2.7-20.7 5.5l-2.8 2.4-1.1-3.1c-.6-1.8-1.1-5.4-1.1-8 0-3-.4-4.9-1.1-4.9-1.6 0-.3 11.4 1.7 15.2 1.2 2.3 1.3 4 .5 8.1-1 5.7-4.5 14.3-6.6 16.7-.7.8-1.3 1.9-1.3 2.3s-.7 2.8-1.6 5.2c-1.5 3.8-2.3 4.6-6.6 6.1-2.7 1-4.7 2.1-4.4 2.5.2.4 0 1-.5 1.3-.5.4-2.1-2.7-3.6-6.6-1.5-4-4.2-10.6-6.1-14.6-1.9-4.1-3.1-7.9-2.7-8.5.3-.5.1-.7-.5-.3s-2.5-2.1-4.7-6.3c-2.4-4.6-4.4-7.1-5.9-7.5-2.4-.6-12-6.8-17.4-11.2-1.8-1.5-3.5-2.5-3.7-2.2-.9.8 14.9 12.5 18.8 13.8 2.3.9 4.2 2.6 5.5 4.9 8.6 15.8 11.2 21.3 11.2 24 0 3-.1 3.1-4.7 3.1-7.5.1-13.1 1.7-22.8 6.8-8.8 4.6-9.2 4.7-17 4.4-25.4-1-25.3-1-34.2 3.2-7.4 3.5-8.3 4.3-8.2 6.5.2 2.2.2 2.3.6.5.3-1.5 2.4-3.1 7.2-5.3 9.8-4.5 16.6-5.6 25.1-4.2 12.6 2 15.6 1.6 26.8-3.9 15.1-7.3 28-8.8 28.3-3.3.1 1.9.4 3.4 1.4 6.8.5 1.8-.8 2.7-10.4 7-9.7 4.3-11 5.2-10.5 7 .4 1.1.7 2.4.8 2.9 0 .5-8.9 4.9-19.9 9.9s-20.1 9.1-20.3 9.2c-.1.1 1.1 3.2 2.8 6.8 3.6 7.9 3.6 7.7 1 15.8-2.8 8.7-8.4 16.9-18.7 27.4l-8.6 8.8-1.8-2.4c-1-1.3-1.9-2.8-1.9-3.2 0-.5-.7-1.5-1.5-2.3s-2.1-2.4-2.9-3.6c-1.5-2.1-1.5-2-6.3 1.4-9.3 6.9-19.7 11.1-29.8 12.3-12.3 1.4-14.3 1.8-18.9 4.3-3 1.7-7 5.2-10.2 9.2-9.5 11.7-13.7 13.9-26.4 14h-8.5l-.4-2.8c-.2-1.5-.4-5.9-.5-9.7 0-8.9 5.1-24.4 9.6-29.1 3.9-4.1 7.4-5.1 28.2-7.9 1.5-.2 3.8-1.2 5-2.3 1.1-1 3.4-3 5-4.5 1.7-1.4 4.4-3.1 6-3.7 11.5-4.3 15.1-8.3 27.9-31.7 7.5-13.4 7.6-13.6 17.8-14.6 2.9-.4 3.4-.8 3.6-3.3.3-2.7.2-2.7-.7-.7-.5 1.3-1.6 2.3-2.4 2.3s-3.8.5-6.6 1.1c-5.5 1.2-6.7 2.4-13 14.7-4.8 9-8.2 14.7-12.5 20.6-3.3 4.6-5.2 6.1-11 8.7-3.8 1.7-9.2 5-12 7.3-4.5 3.8-5.9 4.4-13 5.5-11.8 1.7-17.7 3.1-20.3 4.8-1.3.8-2.5 1.3-2.7 1.1s.3-7.1 1-15.3c.8-8.3 1.5-15.3 1.5-15.8 0-.4.7-.7 1.5-.7s1.5-.4 1.5-1c0-.5-.7-.6-1.7-.3-.9.4-1.4.2-1.1-.3s.9-6.3 1.3-12.9c.6-11.6 1.9-18.9 3.5-21 .4-.6 1.5-3.2 2.4-5.8 1.4-4.1 1.4-5.2.2-8-1-2.6-10.5-14.3-23.2-28.8-1.3-1.4-.4-2.6 8.3-10.4 5.4-4.8 10.2-9.3 10.6-10.1.4-.7.3-2.8-.2-4.6l-.9-3.3-.1 3.8c-.1 2.5-.8 4.5-2.4 6-4.3 4.2-16.8 15.2-17.5 15.4-1.3.3-12.4-13.6-11.7-14.7.4-.6.2-.9-.4-.8-.6.2-3.2-2-5.7-4.7-2.6-2.9-4-4-3.3-2.5.7 1.3 1.8 3 2.5 3.8.7.7 7.1 8.1 14.1 16.4 7 8.4 15.7 18.6 19.3 22.7 11.6 13.4 11.8 13.9 6.9 24.7-2.7 5.8-3.3 8.7-4 18.4-.5 6.3-1 13.7-1.3 16.5-.2 2.7-.7 9-1.1 14-1.1 15.3-2.3 21.6-6.2 32-3.6 9.7-3.7 10.4-3.7 22.6l.1 12.7-3.6.6c-2 .3-4.7 1.2-6.2 1.9-1.4.8-5.1 1.7-8.4 2.1-6.5.7-13.8 3.6-17.2 6.8l-2.2 2-5.8-4.9c-3.2-2.7-7.5-5.7-9.5-6.7-4.2-1.9-4.3-2.3-2.7-8.1 1.1-3.7 3.9-8.3 8.3-13.3 1.1-1.2 2.1-3.1 2.3-4.2.4-2.6 2.5-7.3 5.9-13 1.6-2.8 2.6-5.9 2.6-8.2-.1-3 .5-4.2 2.3-5.4 1.3-.9 3-1.2 3.6-.8.8.4.9.3.5-.4-.4-.6.8-3.1 2.6-5.5 8.7-11.7 12.8-17.6 12.8-18.4 0-1.4-5 4.8-10.6 13.2-2.9 4.4-6.9 9.1-8.9 10.4-1.9 1.3-3.5 3.1-3.6 4-.3 5.6-2.4 11.6-5.4 15.1-.7.8-1.8 3.5-2.5 6s-2.7 6.4-4.6 8.7c-4.2 5.1-7.3 11.8-7.4 15.5 0 2.1-.5 2.8-1.9 2.8-1 0-3 1-4.5 2.1-2.7 2.1-2.9 2.1-13.7.7-9.4-1.3-11.2-1.3-13-.1-1.3 1-3.9 1.3-7.8 1.1-5.5-.3-6.1-.1-8.1 2.5-1.2 1.5-2.6 2.4-3.2 2.1-.7-.4-.8-.2-.4.4.5.9-11.8 17.5-14.4 19.2-2.1 1.5-10.3 15.1-11.5 19.4-2.1 6.9-2 7.7 2 16.9 1.9 4.4 3.5 8.2 3.5 8.4s-7.3.1-16.3-.3c-18.9-.8-27.8.5-41.5 6.2-4.5 1.9-8.8 3.4-9.5 3.4-1.9 0-6.5-5-11.7-12.8-2.5-3.7-5.9-7.6-7.7-8.7-3.1-1.9-4.4-3.9-7.8-11.8-.9-2-2.7-4.4-3.9-5.2-1.3-.9-4-4.3-6-7.5-2.1-3.3-4.7-6.5-5.9-7.1-1.2-.7-4.9-1.1-8.2-1-5.4.2-6.3-.1-8.5-2.4-1.3-1.4-4.8-3.3-7.7-4.1s-5.5-2-5.8-2.5c-1.2-1.9-8.1-4.6-13.4-5.3-3.3-.4-6-1.4-6.8-2.4-3.2-4-5.3-9.4-5.3-13.5 0-3.7-.5-4.7-3-6.6-1.7-1.2-5.1-5.4-7.5-9.2-2.7-4.1-6.2-8-8.6-9.7-2.3-1.5-6.6-5-9.6-7.8l-5.5-5 9.7-15.5c10.2-16.1 13.6-20.5 16.8-21.5 2.3-.7 2-3.4-1.5-17.3l-2.1-8.4L47 70.8l3.2-11.9-3.8-5.7C34.7 35.4 30.6 32 18.5 30.1 12.1 29 11 28.6 11 26.9c0-5.4 6.7-12.4 16.1-16.9 3.1-1.4 7.6-4.3 10-6.3 5.1-4.4 3.9-5-1.4-.6m511.6 48.2c1.4 3.7 2.1 7 1.7 7.2-1.1.7-1.5 0-3.4-6.4-1.5-5.2-2.1-8.9-1.2-8 .3.2 1.6 3.5 2.9 7.2m17.2 3.8c.4 1.1 2.6 4.9 5 8.3l4.3 6.3-6.6 2.1c-3.7 1.2-6.9 1.8-7.3 1.4-1-1.1-5.9-14.1-5.9-15.6 0-1.3 6-4.4 8.7-4.5.6-.1 1.5.8 1.8 2M555.4 66c1.6 3.9 2.6 7.3 2.3 7.6s-1.5-1.7-2.7-4.4c-1.2-2.8-3-5.8-4.1-6.8-1-.9-1.6-2.1-1.3-2.5 1.3-2.2 3.1-.3 5.8 6.1m47.2-2.3c1.5 2.7 3.7 5.9 5 7.3 1.2 1.4 3.5 5.4 5 9s4.6 9.4 6.9 13 6 9.5 8.4 13.2c4.8 7.5 6.8 9.2 12.6 10.2 4.4.9 8.6 2.8 10.2 4.8.6.7 1.3 4.8 1.6 9.1l.6 7.8 6.5 6.9c5.2 5.5 6.9 8.2 8.2 12.6.9 3.1 1.2 6 .8 6.4-.5.4-3.4 1.8-6.4 3.1-8.7 3.7-15.3 8.3-20.9 14.8-4.1 4.7-6.3 6.4-9.9 7.5-6.6 1.9-16.2 8.6-21.8 15.1-2.6 3-5.1 5.5-5.4 5.5s-1.4-1.6-2.3-3.6c-1.5-3.1-2.1-3.5-4.5-2.9l-2.7.6-1.8-10.3c-3.9-21.8-11.9-41.2-20.8-50.4-4.6-4.7-6-10.5-5.6-23.9.1-6.6-.2-8.7-2.1-12.2-1.2-2.3-1.9-5-1.6-6 .4-1.3.3-1.4-.4-.5-1.6 2.4-4.4-6.5-4.9-15.9l-.4-8.6 8.8-2.6c7.6-2.3 8.9-2.5 10.3-1.2 1.4 1.2 2.5 1 8.9-2.2 4-2 8.9-5.4 10.9-7.5s3.7-3.8 3.9-3.8c.1 0 1.4 2.1 2.9 4.7m-52.1.5c3.9 4.6 4.5 7 5 18.3.4 10.3 1.1 12.7 6.6 23.9 4.4 8.9 4.2 10.8-3.6 26.4-5.1 10.3-8.2 15.2-12.5 19.7-3.1 3.3-7.4 8.2-9.4 11-2.1 2.7-5.7 6.2-8.1 7.7l-4.3 2.7-1.1-2.7c-1.9-5.1-3.9-14.7-4.6-22.7-.7-8.6-2.7-14.3-7.2-20.2-3.6-4.7-13-13.6-15.3-14.5-2.3-.8-3.1-2.1-3.5-5.7-.2-1.6-1.5-5.2-2.9-8s-2.6-5.2-2.6-5.5c0-.2 9.2-4.6 20.5-9.7 16.4-7.4 20.4-9.6 19.9-10.8-.3-.9-.7-2.2-.8-2.9-.1-1.1 17.3-10 20.1-10.1.6-.1 2.3 1.3 3.8 3.1m-46.1 58.6c6 5.9 9.1 10.4 7.8 11.7-.4.3-.1.5.7.3 1.8-.4 3.4 5.6 5.3 20.7 1 7.7 2.2 12.5 4 16 12 23.4 16.8 33.2 16.8 34.3 0 .9-.7 1.1-1.9.7-1.1-.3-3-.8-4.2-1-4.4-.9-12.5-3.8-18-6.6-5.3-2.6-6.7-2.8-22.7-3.5-16.3-.7-17.1-.6-20 1.5-1.7 1.1-3.4 2.1-3.9 2.1-.8 0-4.2-22.5-4.2-27 .1-.8-.7-5.1-1.5-9.4l-1.6-8 9.5-9.5c10.6-10.6 16.7-19.1 19.1-26.6.9-2.8 1.9-5.3 2.1-5.8.5-.9 4.7 2.4 12.7 10.1m60.3 6.5c.1 5.8 2.5 11 7.7 17.1 6.9 8.2 12.2 19.9 16.6 37.1 2.6 10.2 4.2 20.7 3.3 21.6-1.4 1.4-16.4 6.9-22.7 8.4-3.3.8-8.7 1.5-11.8 1.5-7.3 0-8-1.1-8.2-14-.1-5.4-.6-10.4-1.2-11.1-.6-.8-3.2-6.9-5.8-13.7l-4.8-12.3 2.5-3.2c1.3-1.8 4.3-5 6.6-7.2 4.5-4.3 7.3-8.6 13.3-20.7 2.2-4.3 4-7.8 4.2-7.8s.3 1.9.3 4.3m-110.3 14.8c1.5 1.7 3.3 4.4 4.2 6 1.7 3.4 3.7 1.3-18.1 18.8-14.8 11.9-28.7 24.8-32.5 30.4-1.2 1.8-5.5 5.3-9.4 7.7s-9.6 6.2-12.6 8.4c-7.2 5.3-10.6 6.8-11.8 5.3-.5-.7-3.3-5.5-6.2-10.7-3-5.2-5.5-9.7-5.7-9.9-.2-.3-2 .3-3.9 1.3-2 .9-3.9 1.4-4.2 1.1-.9-.8-1.7-9.6-1.4-14.3l.3-4.2h6.5c12.7 0 20.6-3.6 28-12.7 9-11.1 13.9-13.9 25-14.8 3.8-.3 8.3-.8 9.9-1.1 7.9-1.5 19.8-7.2 25.4-12.2 1.4-1.2 2.9-2.2 3.3-2.2.3 0 1.8 1.4 3.2 3.1m9.2 37.1 2.7 19.7-2.4 2c-6.2 5.2-22.9 11.2-34.9 12.6-3 .4-5.7.7-6 .8s-3.8-3.1-7.8-7.1l-7.4-7.3 2.6-3.4c5.5-7.2 14.6-15.4 38.1-34.3l11-8.8.7 3c.4 1.7 1.9 12 3.4 22.8m214.5-14.6c2.1 1.4 3.6 3.1 3.3 3.8s2.4 2 7.1 3.5c7.4 2.3 7.5 2.3 7.5 5.7 0 1.9-1.3 6.3-2.9 9.7-10.7 23-12.4 27.7-13.5 37.2-.4 3.7-.1 6.4 1.5 10.5 1.1 3 2.9 8.3 3.9 11.7l1.9 6.3-3.5 4.1c-1.9 2.2-3.4 4.7-3.4 5.4s-1.4 2.5-3.1 4l-3.2 2.6-2.7-2.6c-1.6-1.5-3.2-2.7-3.7-2.7-.8 0-11.4-4.6-12.1-5.3-.6-.6 15.8-27.3 17.1-27.8 1.7-.5-.7-11.4-3.5-15.1-1.7-2.3-2.3-5.2-3-13.2-.8-8.9-.7-11.3.9-17.2 2.2-7.8 2.2-14.2 0-17.6-1.5-2.2-1.4-2.4 1.6-3.9 4.4-2.2 5.5-2.1 9.8.9m-137.6 7.9c1.4 3.8 3.7 9.6 5.1 12.8 1.9 4.6 2.4 7.6 2.4 14.2 0 10.5 1.1 13.2 6.2 14.7 5.2 1.5 13.9-.1 27.7-5.2 5.8-2.1 10.7-3.7 10.9-3.5s.5 4.8.7 10.2c.1 5.4.5 11.5 1 13.5l.7 3.7-8 4c-4.5 2.2-8.3 3.7-8.6 3.3-.7-1.2-14.6.4-18.6 2.1-1.9.9-6.1 2.5-9.2 3.6-3.2 1.2-8.3 3.1-11.3 4.2-3.1 1.2-5.8 1.9-6 1.7-.3-.3 1.9-2.8 4.9-5.6 6.3-5.8 7.6-9.6 5.6-16.8-1-3.5-1-5.3-.1-8.5 1.1-3.5.9-4.9-1-10.7-1.2-3.7-4.6-11.8-7.5-18.1-3-6.2-5.1-11.8-4.7-12.4s.1-.7-.7-.2c-1 .6-1.2.4-.7-.9.4-.9.3-1.5-.2-1.2-.8.5-4.7-4.2-3.9-4.8.2-.2 2.5-1.6 5.1-3.1 2.7-1.5 5.1-3.4 5.4-4.2.8-2.1 1.8-.6 4.8 7.2m152.8-4.8c.8 2.1 1.4 3.9 1.2 4.1-.1.2-2.7-.5-5.5-1.4l-5.3-1.7 2.9-2.4c3.9-3.1 4.9-2.9 6.7 1.4m-27.6 1.4c1.7 3.3 1.6 9-.3 15.7-1.2 4.1-1.5 8.2-1.2 16.1.4 9.3.8 11 3.1 14.4 3.4 5 5.3 13.5 3.3 15.1-1.4 1.1-29.6 47.8-29.6 49s2 .6 2-.7c.1-.6 2.1-4.4 4.6-8.2 2.4-3.9 4.7-7.8 5-8.8.8-2.2 1.1-2.2 7.9.8 6.2 2.8 6.3 4.1.5 6.5-3.5 1.4-3.6 1.8-1.4 4.9.9 1.2 1.2 2.6.8 3-1.1 1-11.4 6.7-17.7 9.8-4.6 2.3-4.7 2.5-3.2 4.6.8 1.2 1.5 3.1 1.4 4.2q0 1.95-2.1-2.4c-1.1-2.5-2.3-3.9-2.7-3.3-.6 1-7.2 4.2-8.6 4.2-1.1 0-29.7-59.7-31.1-64.9-.8-2.9-1.4-9.2-1.3-14.1s-.1-9.3-.5-9.8c-.3-.5.6-1.4 2-2.1 2.4-1 2.7-.9 3.6 1.7.6 1.6 2 3.5 3.1 4.1 1.6 1.1 2.2.9 3.5-1.1 5.9-8.3 16.7-16.7 24.6-19 2.9-.9 6.1-3.3 11.1-8.4 6.6-6.8 18.6-14.8 21-14.1.6.2 1.6 1.4 2.2 2.8m-314.5 23.7c.7 6.6 1.4 8.3 9.6 22.4 4.9 8.4 9.1 15.7 9.3 16.3.2.5 1.5 2.8 2.9 5s2.4 4.2 2.2 4.4c-.1.2-3.6.3-7.8.2l-7.7-.2-9.4-8.3c-5.1-4.6-10.6-10.3-12.2-12.7-1.5-2.5-6.1-7-10.2-10.1s-8.7-7-10.3-8.7c-2.9-3-2.9-3.1-1-4.6 4.2-3.4 9.6-5.5 16.6-6.7 4-.6 9.1-2 11.3-3 2.2-.9 4.5-1.6 5-1.4.6.1 1.3 3.5 1.7 7.4M299 189c.3 0-.2.5-1 1.1-1.2.9-1.2 1 .3.5 2.3-.7 4.8.6 9.8 5.1 4 3.6 4.8 5.3 2.7 5.3-.6 0-3.7 1.2-6.9 2.7-4.6 2.2-6.3 3.7-8.7 7.8-12.9 22.2-14.1 23.7-20.2 25.6-3.7 1.2-8.4 4.4-12.4 8.4-1.8 1.8-4.2 2.5-11.5 3.5-8.1 1.1-9.9 1.8-15.8 5.6-4 2.7-7.8 4.4-9.5 4.4-2.6 0-3.2-.7-6-6.8-4.6-9.9-4.8-15.7-.9-23.5 3.4-6.8 23.2-31.3 24.9-31 .6.2.9-.3.7-1-.2-.6.4-2.2 1.5-3.5 1.7-2 2.5-2.2 6.8-1.6 3.8.5 5.7.2 8-1.1 3-1.8 4.5-1.7 21.8 1.1 2.2.3 3.5-.1 4.9-1.6 1.9-2 3.9-2.2 11.5-1m197.8 7.9c8.4.6 14.1 1.4 15.5 2.3 3.7 2.4 13.7 6.1 21.1 7.8 5.7 1.4 7.1 2.1 7.1 3.6 0 1 .5 2.3 1.2 2.9 1.8 1.5 1.9 5.5.4 10.2-1.3 3.8-1.2 4.7.4 8.3 2.3 5 1 10.2-3.5 14.5-2.6 2.5-3.3 2.7-4.1 1.5s-.9-1.1-.5.5c.5 1.6-1.9 4.5-11.4 13.8-9 8.8-12.3 12.8-13.4 16-3.2 9.3-6.7 17.7-9.3 22-1.3 2.1-3.9 4.5-5.9 5.4l-3.5 1.7-3-3.2c-3-3.2-6.6-5.5-17.2-11-5.1-2.6-6.3-2.9-9-2-1.8.6-4.4 2.5-5.8 4.1l-2.6 3-6.4-4.6c-9-6.6-9.9-7.3-9.9-8.2 0-.5 3.8-5.8 8.4-11.9 4.6-6.2 9.9-14 11.7-17.4 3.1-6 3.2-6.5 2.1-11.2-.6-2.7-.9-5.7-.5-6.6.4-1.1.3-1.5-.5-1-.9.6-9.2-2.1-9.2-3 0-.2 1.3-3.6 2.9-7.6 5.7-14.5 11.7-23.4 17.7-26.6 2.1-1.1 2.2-1 1.2 3.1-1.2 5-.4 13 1.7 18 .8 2 4 7.6 7.2 12.4 6.7 10.5 6.2 9.8 6.8 9.1.3-.3-1.7-3.9-4.4-8-9.5-14.4-11.3-20-10-30.8 1.1-8.6 1.1-8.6 24.7-7.1m-167.5 17.8c3.8 3 7.5 7 8.7 9.2 1.1 2.2 2.6 4.4 3.4 4.8s3.4 2.6 5.8 4.8c2.3 2.2 5.8 5.2 7.6 6.7 3.7 3.1 2.8 4.2-2.5 3.2-8.5-1.5-22.5-10.8-41.7-27.5l-9.6-8.4 2.2-1.7c1.3-1 4.1-2.4 6.3-3.1l4-1.4 4.6 4.1c2.6 2.3 7.6 6.5 11.2 9.3m36.1-6.4c2.2 3.9 5 8.8 6.3 10.7l2.3 3.5-2.2 1.7c-1.3 1-2.8 1.8-3.3 1.8-.6 0-3.8-4.8-7.2-10.7l-6.1-10.7 2.6-1.7c1.5-1 2.9-1.8 3.2-1.8.3-.1 2.3 3.2 4.4 7.2m43.5-3c.6.8.7 1.8.3 2.2-.4.5-.1.5.6.1 1.5-.9 5 2 8.3 6.6l2 2.7-8.2 10.8c-4.5 5.9-9.3 13.1-10.5 16-2 4.4-3.1 5.6-7.5 7.8-2.8 1.5-5.2 2.5-5.3 2.3-1.6-2.3-6.4-11-7.3-13.3-.6-1.7-.9-5.4-.6-8.7.5-5.3.4-5.6-1.8-6-2.4-.4-2.3-.4 1.3-3.9 5.3-5.2 12.7-9.9 14.6-9.2 1.3.4 1.4.3.4-.5-1-.7.2-1.8 4.5-4.5 6.5-4 7.6-4.3 9.2-2.4m47 9.3c-1.8 3.1-4.3 8.5-5.5 11.8-1.2 3.4-2.4 6.8-2.8 7.6-.5 1.2.6 2 4.3 3.5l4.9 1.9.7 5.9c.6 5.1.4 6.5-1.9 10.9-1.4 2.7-5.9 9.3-9.9 14.5-7.5 9.9-10.7 14.4-10.7 15.3 0 .3 3.8 3.4 8.5 6.9 4.7 3.4 8.5 6.6 8.5 7 0 1.3-5.1 8.1-6.1 8.1-2.7 0-28.9-20.3-28.9-22.4 0-.8 2.3-7.4 5.1-14.7 6.4-16.7 13.1-34.6 17.6-46.9 1.8-5.1 3.5-9.4 3.6-9.5.1 0 3.6-1.4 7.7-3.1s7.6-2.9 7.8-2.8-1.1 2.8-2.9 6M315 221.2c19.4 16 19.2 15.9 28.2 20.3 6 2.9 8.5 3.6 11.7 3.3l4.1-.4v21.9l-6.9-.6c-3.8-.3-11.8-2.1-17.7-4-14.3-4.6-20.8-5.3-30.8-3.2-4.3.9-11 1.5-15 1.5-3.9-.1-8.4.3-10.1 1-5.1 2-11.7 2.6-20 1.8-4.4-.4-12.6-1-18.2-1.4-5.7-.4-10.3-1-10.3-1.3s2.7-2.3 6-4.4c5.1-3.3 7.4-4.1 15.7-5.3 5.4-.7 10-1.4 10.3-1.4s1.4-1.4 2.4-3.1c1.3-2.2 4-4.1 9.2-6.5 8.6-3.9 9.9-5 15.1-13.8 2.2-3.6 4.3-6.3 4.8-5.8.4.4.5.1.1-.6-.8-1.4 3.9-10.2 5.5-10.2.5 0 7.7 5.5 15.9 12.2m126-5.5c0 .5-3.2 9.5-7.2 20.1-7.9 21.2-6.7 19.8-14.5 16.6l-3.2-1.3 4-9.8c4.4-10.9 5.3-16.5 3.3-20.5l-1.4-2.7 4.8-.6c2.6-.4 6.3-1.1 8.2-1.5 4.8-1.1 6-1.1 6-.3m-18 9.6c0 3-2.7 13.4-3.9 15.2-.4.5-1.5 3.1-2.5 5.7-1 2.7-2.1 4.8-2.6 4.8-1.8 0-9.6-3.8-10.8-5.2-1-1.2-.5-2.6 2.9-7.9 2.3-3.5 6.4-9.1 9.2-12.5 4.5-5.5 5.3-6 6.4-4.6.7 1 1.3 3 1.3 4.5m-47.7 6.6c-.3 2.8-.9 5.1-1.2 5.1-.7 0-5.1-8-5.1-9.2 0-.4 1.2-1.4 2.8-2.2 3.6-1.9 4.3-.5 3.5 6.3m4 2.6c.2 6.1.6 7.7 3.5 12 3.1 4.6 5.9 12.2 4.9 13.2-.5.4-4.8-6.5-9.8-15.7-2.3-4.1-2.4-5-1.6-10.8.5-3.5 1.3-6.2 1.9-6 .5.2 1 3.5 1.1 7.3m223.2 14.6c3.6 7.2 6.5 13.5 6.5 14s-3.6 2.7-8 4.9c-4.5 2.2-8.3 4.7-8.6 5.5-.9 2.4-9.1 7.3-16 9.5-3.5 1.2-6.6 2.6-7 3.1-.3.5-6.9 4.1-14.6 8-12.2 6.1-14.1 6.8-15.1 5.5s-2.2-1.4-8.1-.5c-7.4 1.2-21.7 0-25.6-2.1-2-1.1-2-1.1-.1-4.8 1-2 2.8-6.7 4-10.5 2-5.9 3.3-7.8 11.1-15.7l8.9-9.1 12.8-4.5c7-2.5 15-5.4 17.7-6.6 5.8-2.4 15-3.5 16.8-2 1 .7 3.6-.2 9.8-3.4 4.7-2.3 8.6-4.3 8.8-4.3.1-.1 3.1 5.8 6.7 13M372.7 245h4.1l5.1 8.7c7.4 12.8 7.7 12.4-8.1 12.1l-13.3-.3-.1-10c0-5.5.2-10.4.4-10.9.3-.4 2.1-.6 4.1-.2 2 .3 5.5.6 7.8.6m33.4 4.5c2.4 1.4 5.2 2.5 6.3 2.5 2.1 0 1.8 1.9-1.4 9.4l-1.9 4.6H399c-7.6 0-10.1-.3-9.8-1.3.2-.9 11.8-17.4 12.4-17.6.1-.1 2.2 1 4.5 2.4m-12.7 6.9c-3.4 4.1-4.4 4.4-4.4 1.3 0-1.6 1-2.8 3.3-3.9 1.7-.9 3.4-1.4 3.6-1.2s-.9 1.9-2.5 3.8m27.9-1.8c2.6.9 4.7 1.7 4.7 1.8 0 .6-10.9 28.9-11.3 29.3-.3.2-2.4-.5-4.7-1.7-4.9-2.5-4.9-3-.6-14.5 1.5-3.9 3.4-9.1 4.3-11.8.9-2.6 1.9-4.7 2.3-4.7.3 0 2.7.7 5.3 1.6m-89.1 8c7.2 2.3 14.1 3.8 19.1 4.1 7.1.5 7.7.7 7.7 2.7 0 2.1-.4 2.2-6.2 1.8-3.5-.2-7.4-.7-8.8-1.3-1.4-.5-10.1-1.3-19.5-1.9-9.3-.5-19.7-1.2-23-1.5-14.9-1.2-19.2-1.6-22.4-2.2l-3.4-.6 2.9-1.2c1.8-.8 5.4-1.1 9.4-.8 4.1.3 8.5-.1 12-1 9.8-2.8 19.3-2.2 32.2 1.9M212 261.5c1.9.1 4.9.3 6.6.4 3.8.1 4.4 1.8 3.1 8l-.9 4.4-8.6-.9c-4.8-.5-12.3-.9-16.7-.9-9 0-13.8 1.8-23.1 8.6l-5.1 3.8-2.9-1.8c-4.2-2.6-6-5.2-6.2-8.6-.1-2.5.6-3.5 4.6-6.1 10.7-7.2 22.4-8.8 49.2-6.9m35.5 3.1c9 .7 13.7 1.2 14.2 1.7.2.3-1.5 1.2-3.8 2.1-2.4 1-6.8 3.5-9.8 5.6l-5.6 4-4.9-1.5c-2.7-.8-7.4-1.5-10.3-1.5-4.7 0-5.4-.2-4.9-1.8.2-.9.8-3.3 1.1-5.2.4-1.9 1-3.9 1.2-4.4.3-.4 4-.5 8.2-.2 4.2.4 10.8.9 14.6 1.2m370.4 15.8c4 8.5 7.2 15.8 7 16.2-.2.5-3.1 2.2-6.4 3.9-4.3 2.2-5.9 3.5-5.7 4.8.4 2.4-5.3 12.8-9.7 17.6-2 2.2-3.7 4.5-3.9 5.2-.4 1.7-13.4 23-13.8 22.6-1.5-1.5-8.7-13.5-8.7-14.4 0-.7-.2-1.1-.4-.9-1 1-13.2-8.5-16.3-12.8-3.1-4.2-3.8-4.7-6.5-4.1-1.6.3-4.2 1.4-5.7 2.5-3.5 2.6-11.2 2.6-19.3.1l-5.9-1.9-1.8-7.8c-2.4-11-2.7-10.4 4.5-10.4 3.4 0 7.7-.4 9.5-.9 2.6-.8 3.4-.7 3.9.5.3.7 1.2 1.4 2 1.4 1.6 0 23.8-11 28.3-13.9 1.4-.9 5-2.5 8-3.6 7.2-2.4 11.9-5.2 15.2-8.9 2.2-2.4 15.7-10.4 17.8-10.6.3 0 3.9 6.9 7.9 15.4M280.6 268c5.5.5 13 1.2 16.9 1.5 6.3.6 7.3 1 10.1 4.1 1.8 1.9 3.9 3.4 4.8 3.4 2 0 2.1 1.4.1 3-.9.7-1.4 1.9-1.1 2.6.7 1.7-4.8 5.8-9.9 7.4-6.1 2-10 1.4-19-2.9-8-3.9-8.5-4.3-12.9-11.6-2.5-4.2-4.6-7.8-4.6-8 0-.7 4.8-.6 15.6.5m92 .5c1.2 3-1.2 4.3-6.7 3.4-5.9-.9-6.4-1.2-5.6-3.4.9-2.1 11.5-2.2 12.3 0m14.2 2.8.3 3.9-4.3-.7c-7.1-1.2-8.8-2.2-8.8-5 0-2.5.1-2.6 6.3-2.3l6.2.3zm21.2-3.1c0 2.3-3.7 11.2-4.9 11.6-.6.2-4-.6-7.6-1.8-6.5-2.2-6.5-2.2-6.5-5.9 0-2.1.2-4 .5-4.2.2-.3 4.5-.6 9.5-.8 6.9-.2 9 .1 9 1.1m-139.6 7.9 4.8 8.1 9.3 4.4c5.2 2.4 10.3 4.4 11.5 4.4 7.3 0 19-6.1 19-9.9 0-.9.7-2.4 1.4-3.4 1.2-1.6 2.1-1.7 8.1-.7 3.7.6 19.7 1.1 35.5 1.1l28.8-.1.5 6.3c.2 3.4.5 15.3.6 26.5s.4 21.7.8 23.5c.9 4.7 3.9 10.2 6.8 12.5 5.3 4.2 6.8 11 4.3 19.3l-1.3 4.1-19.5-.6c-23.4-.6-28.6-1.3-36.8-5.5-3.4-1.7-6.4-3.1-6.7-3.1-.2 0-3.7-1.5-7.7-3.4-16-7.6-49.4-22.8-51-23.3-2.4-.7-2.3-1.1 1.2-8.6 3.6-7.9 3.9-9.8.5-3.8-1.4 2.3-2.5 4.8-2.5 5.5s-.6 2.1-1.4 3.1c-1.5 2.1 0 2.7-25.6-9.3-5.2-2.4-11.9-5.5-14.8-6.8l-5.2-2.3 2.5-5.7c1.4-3.1 2.4-5.8 2.3-5.9-.2-.1-4.7-2.1-10.1-4.5-5.3-2.4-9.6-4.6-9.4-4.9 1.5-2.7 5.8-12.6 6.3-14.6.5-2.1 1.2-2.5 4.6-2.5 2.1 0 7 .7 10.8 1.6l6.9 1.5 6.1-4.1c5.9-4 11.5-6.9 13.5-7 .6 0 3.2 3.6 5.9 8.1m402.9-4.1c-.5.4-2.6 1.9-4.8 3.4-3.7 2.4-4.1 2.5-5.2.9-1.9-2.5-1.7-3 2.9-5.7 3.9-2.3 4.4-2.4 6-.9 1 .9 1.5 2 1.1 2.3m-349.8-.5c3.3.3 9.6.8 14 1 4.4.3 12.7 1 18.5 1.4 5.8.5 12 1 13.9 1 4 .2 5.1.7 5.1 2.7 0 1.2-3.1 1.4-19.2 1.4-29 0-45.8-2.8-45.8-7.5 0-1.2.9-1.4 3.8-1 2 .2 6.4.7 9.7 1M147 272c0 .5-.4 1-1 1-.5 0-1-.5-1-1 0-.6.5-1 1-1 .6 0 1 .4 1 1m9.8 1.8c.4 2.7-.9 2.8-3.2.3-1.3-1.5-1.4-2-.4-2.4q3.15-1.35 3.6 2.1m521.6-.3c1.6 2.5 1.4 4.5-.4 4.5-1.5 0-4.3-4.8-3.5-6 1-1.6 2.1-1.2 3.9 1.5m-519.6 6.9c5.2 4.6 20 11.7 25.7 12.3 3.1.4 4.4.1 5.9-1.5 1.5-1.7 2.2-1.9 4.4-1 1.5.5 5.9 1.8 9.7 2.8l7 1.8 1 4.7c.8 3.8 1.6 4.9 4 6 13 5.6 12.6 5.4 11.6 7.3-.9 1.6-.3 2.2 3.9 4.2 2.8 1.3 4.8 2.5 4.6 2.7s-3.4-1.1-7.2-2.8-9.6-4.1-12.9-5.4c-12.9-4.9-28.1-11.8-31.1-14-1.6-1.3-8.6-5-15.5-8.2-9.2-4.4-13.4-7-16.1-10.1-2.1-2.3-3.8-4.7-3.8-5.4 0-1.1 1.2-.3 8.8 6.6m48.7-5.9c12.8 1.5 12.6 1.5 11.9 3.8-.3 1.2-2 5.1-3.6 8.6l-3 6.3-4.2-.6c-2.2-.4-6.9-1.6-10.4-2.7l-6.3-2.1-2.3 2.1c-3 2.8-4.4 2.7-13.3-1.1l-7.6-3.1 3.3-2.7c3.9-3.2 10.5-6.6 18-9.4 1.4-.5 9.1-.2 17.5.9m470.4 7.2c7.6 12.7 13.7 22.2 15.9 24.7 4.7 5 9.9 20.1 11.7 33.6 2.2 16.5 6.5 31.3 10.7 37.3 1.6 2.3 2.2 4.9 2.6 12.2l.5 9.3-4.4 3.1c-5.4 4-8.5 4.8-10.7 2.8-.9-.8-2.7-1.8-4-2.2-1.3-.3-5-3.3-8.3-6.6-5.4-5.3-5.9-6.2-4.7-7.7.7-.9 1.7-2 2.2-2.3.5-.4.1-4-.7-8-.9-4.1-1.9-9.7-2.3-12.4-1.4-10.7-4.2-16.4-12.8-26-4.5-4.9-10.6-12.1-13.6-16-3-3.8-6.6-8-7.8-9.2-1.3-1.2-2.1-2.7-1.7-3.2.3-.7 0-.8-.9-.5-1.4.6-2.1-.5-1.7-2.9 0-.4-.4-.6-1-.5-1.9.5-4.6-5.3-5.2-10.8l-.6-5.1 7.2-3.8c3.9-2.1 10.9-6.2 15.6-9.2 4.7-2.9 8.7-5.3 8.7-5.3.1 0 2.5 3.9 5.3 8.7m-530.5-5.6c-3.1 1.2-4 .9-2-.6 1-.8 2.4-1.1 2.9-.8.6.4.2 1-.9 1.4m238.6 2c1 .5-.7.8-4.7.9-5.1 0-6.3-.3-6.3-1.6 0-1.4.8-1.5 4.8-.9 2.6.4 5.4 1.1 6.2 1.6m-234.5.9c1 1.1 3.8 3.3 6.2 4.9l4.3 2.8-6.3 2.3c-3.4 1.2-9 3.9-12.3 6-6.4 4.1-13.4 7.3-14.1 6.6-.2-.2-2.3 1.3-4.6 3.4-3.4 3.1-4.4 3.7-5.7 2.7-.8-.6-1.2-.7-.8-.3.4.5-1 1.8-3.2 3s-5 3-6.2 4.1c-7.8 6.8-7.4 6.6-10.4 5.2-9.8-4.4-12.4-7.5-12.4-14.8 0-3 .4-3.9 1.8-3.9.9 0 4.5-1.3 8-3 3.5-1.6 7.7-3.1 9.3-3.2s2.9-.6 2.9-1.1c0-1.3 22.8-11.7 29-13.2 3-.7 6.6-1.8 8-2.3 3.6-1.5 4.5-1.4 6.5.8m247.7 3.1c9.1 3.3 12.2 5.6 11.2 8.2-.6 1.7-.8 1.8-15.6 2.2-5.7.2-5.8.1-5.8-2.7s0-2.8 6.4-2.8c3.6 0 6.7-.3 6.9-.8.3-.4-2.6-.6-6.4-.4l-6.9.4v-3.6c0-2 .4-3.6.9-3.6s4.7 1.4 9.3 3.1M176 293.9c3.6 1.7 8.5 4.4 11 5.9s10.5 5.2 17.7 8.2l13.3 5.5 3 9.5c5 15.9 5 15.2-.9 19.8-2.8 2.2-9.4 6.4-14.7 9.4-13.3 7.3-14.9 9-15.8 16.1-.9 7-5 12.6-7.7 10.4-.8-.6-4.3-6.7-7.7-13.4L168 353l-.1-11.2c0-6.6.4-12.6 1.1-14.3.6-1.7 1.2-5.9 1.2-9.4.1-6.1-.1-6.6-3.4-9.5-1.9-1.7-4.8-4-6.3-5.1-4.4-3-10.5-8.6-10.5-9.6 0-1.3 5.7-3.9 10.3-4.8 2.8-.5 5.1-.3 6.7.5 1.4.6 5.4 2.6 9 4.3m245.3.3c12.3 8.3 27.8 20 28.7 21.8.7 1.2.7 2.8 0 4.4-.5 1.4-.7 3.9-.4 5.4.9 4.3-3.5 16.2-9.7 26.2-1.6 2.6-2.9 5.7-2.9 6.8 0 3.3-4 13.2-5.3 13.2-.7 0-7.5-1.8-15.2-3.9l-14-3.9-.5-5.5c-.5-5.1-1-6.1-5.2-10.4-3.3-3.4-5.1-6.4-6.2-10.2-2.7-9.4-2.8-9.1 9-27.2 12.5-19.3 13.6-20.9 14.6-20.9.5 0 3.7 1.9 7.1 4.2m54.3 3.2c5.8 3.1 10.5 6.4 11.3 7.9 1.4 2.3 1.3 2.8-1.1 5.8-2.1 2.9-9.9 6.9-13.2 6.9-.3 0-2-2.3-3.7-5-1.7-2.8-3.4-5-3.7-5-.4-.1-2.9-2-5.6-4.4l-4.9-4.3 2.2-2.9c2-2.6 4.6-4 7.7-4.3.6-.1 5.6 2.3 11 5.3m-393.5-1.2c.6 1.1.8 2.2.6 2.5-.6.5-4.7-3.7-4.7-4.9 0-1.4 3 .4 4.1 2.4m-3.1 2.5c0 .8-1.2 1.3-3 1.3-3.2 0-3.6-.9-1.9-4.1 1-2 1.1-2 3-.3 1 .9 1.9 2.3 1.9 3.1m71-2.7c.6 1 4.8 4.9 9.5 8.5 5.1 4 8.7 7.6 9.1 9.1.7 2.7.1 8.2-1.6 16.3-.8 3.4-1 8.8-.6 14.8.7 8.8 1.1 10.2 6.2 20.5 3.9 7.9 5.1 11.4 4.3 11.9s-.4.8 1.1 1.1c4 .5 4.6 3.1 1.8 6.9-1.4 1.9-3.5 5.3-4.7 7.6-2.5 5-7.3 9.1-15.5 13.1-4.3 2.1-7.1 4.3-9 7.1-1.6 2.3-3.3 4.1-3.8 4.1s-.7.4-.3 1c.7 1.2-1.7 6.9-4.1 9.5-2.9 3.1-7.3 12.6-7.6 16.5-.3 3.3-.5 3.5-5.8 4.7-3 .6-5.5 1.1-5.6 1s-.8-8.5-1.4-18.7c-1.2-17.1-1-36.9.5-72.5 1.6-36.6 1.7-33.3-.8-34.7-1.2-.6-5.5-1.9-9.6-2.8l-7.5-1.6 5.9-4.2c3.3-2.4 7.1-4.5 8.5-4.9 1.4-.3 3.9-1.8 5.7-3.3 1.7-1.6 4.8-3.3 6.9-4s6.5-3 9.8-5.1c3.4-2.1 6.4-3.9 6.8-3.9s1.2.9 1.8 2m256.7.2c-4 5.9-14.3 22.6-15.4 25-.7 1.6-1.5 2.8-1.8 2.8s-.5-6.8-.5-15v-15h19.2zm232.3 2.5c1.4 2.6 4 6.7 5.8 9.1s3 4.8 2.6 5.4-.3.8.4.4c.6-.3 4.2 3.2 8.4 8.1 12.6 15.1 14.9 18.3 14.3 19.3-.4.6-.1.9.6.8.6-.2 3.1 2.2 5.5 5.2 3.7 4.7 4.7 7 6.5 15 3.4 15.2 3.5 14.9-.9 19.9l-3.9 4.5-8-1.8c-5.3-1.2-10.5-1.7-15.7-1.4l-7.8.3.5-3.5c.4-3.9-2.1-10.7-5.8-15.6-2.2-2.9-9.5-7.1-17.6-9.9-10.4-3.7-21.2-10-25.8-14.9l-2.4-2.5 4.7-7.3c2.6-4 6.7-10.2 9.1-13.7 2.8-4 4.5-7.6 4.5-9.3 0-2.7.7-3.2 7.8-6.4 4.2-1.9 9.1-4.1 10.7-4.9 1.7-.8 3.2-1.5 3.5-1.5s1.6 2.1 3 4.7m-416.3.3c4.8 2.2 8.8 4.2 9 4.4.8.8-2.1 5.6-3.3 5.6-.8 0-4.3-1.4-7.9-3.2-5.1-2.5-6.5-3.7-6.5-5.4 0-1.2-.3-2.9-.6-3.8-.8-2.2-.6-2.1 9.3 2.4m288.3.8 6.4 1.7 1.3 6.5c.7 3.6 1.5 7.5 1.8 8.7.4 1.8.1 2.3-1.4 2.3-1.4 0-4.5 3.2-9.6 10-6.5 8.6-8 10-10.5 10-5.4 0-6-.7-8.5-10-1-3.8-3.2-10-4.2-11.9-1-2.1-.9-2.9.7-5.2 1.1-1.5 3.2-3 4.7-3.4 3.9-.9 8.1-4.2 9.8-7.6 1.8-3.4 1.2-3.3 9.5-1.1m-49.6 7.4c8.1 7.9 8.7 9.7 4.2 12.2l-3.4 1.8-7.1-5.6c-3.9-3.1-7.1-6-7.1-6.5 0-.4 1.1-2.1 2.5-3.7s2.5-3.2 2.5-3.7c0-1.8 2.5-.2 8.4 5.5m-377-2c.9 4.5-.4 5.1-4.8 2.4-4.6-2.8-4.7-3.9-.4-4.7 1.8-.4 3.6-.7 3.9-.8.4 0 .9 1.3 1.3 3.1m145.1 13.3c12.2 5.5 16.6 7.5 17 7.5.2 0 7.9 3.6 17.2 8.1 9.2 4.5 24.5 11.5 33.8 15.6 9.4 4.1 19.5 8.6 22.6 9.9l5.6 2.5.1 5.4.1 5.3-6.7.5c-21.2 1.4-78.3 3-79.2 2.1-.5-.5-3.6-6.9-6.9-14.2-4.8-10.4-6.1-14.4-6.1-18.1 0-2.6-.6-6.9-1.4-9.4-.8-2.6-1.2-4.7-1-4.7.3 0 .1-.8-.5-1.8-.5-.9-1.6-4.1-2.5-7l-1.5-5.3 2.2.6c1.2.4 4.5 1.7 7.2 3m255.3-1.3c-.7 2-7.7 4.3-9 3-.9-.9-.3-1.5 2.3-2.6 4.2-1.9 7.2-2 6.7-.4m-389.9 2.5c1.6 1.1 4.9 1.7 9.6 1.9 9.4.4 18.1 3.3 17.8 6-.5 3.5-2.5 59.7-2.6 71.4-.1 12.5 1.1 42.6 1.9 47.8l.5 3.2h-6.8c-5.5 0-8.5.7-15.3 3.5-4.6 1.9-8.7 3.5-9.1 3.5-.3 0-1.1-1-1.7-2.3-1-2.1-1-2.1-.9.7.2 3.5-1.9 4.6-2.5 1.4-.3-1.3-2.6-10.4-5.1-20.3-5.2-20.1-6.2-27.6-7.7-54.8-.8-15.4-.7-19.5.4-23 .8-2.3 2.1-6.5 3-9.4l1.5-5.2-5.7-1.6c-3.1-.8-9.5-2.7-14.2-4.2l-8.5-2.6 4.3-1.8c2.4-1.1 4.8-1.7 5.3-1.3.5.3.6-.1.4-.8-.7-1.7 7.1-6.8 10.5-6.9 1.4 0 6.8-1.5 12-3.4 11.5-4 10.1-3.8 12.9-1.8m361.2.4c3.7 2.6 3.6 3.2-.3 4.7-4.3 1.6-6 .2-4.6-3.9 1.2-3.5 1.2-3.5 4.9-.8m13.4-.1c-2.7 1.2-4.3 1.2-2.5 0 .8-.5 2.2-.9 3-.9 1 0 .8.3-.5.9m26.3 20c2 0 4.7.3 6 .6 1.4.4 2.2.2 2.2-.6 0-1.4 7.9-12.6 12-17 3.1-3.3 3.5-3.3 13.2-.3 4.3 1.4 7.1 1.8 14 2.2 2.4.1 2.8.6 3.3 4.4.4 2.4 0 8.7-.7 14-.9 5.8-1.2 11.7-.8 14.9.5 3.2.3 5.8-.3 6.6-.7.9-.2 2.3 2 5 1.6 2 3.5 4.7 4.1 5.9.7 1.2 1.8 2.7 2.4 3.5.7.7 4.1 4.5 7.6 8.4 8.6 9.9 8.4 11.9-.7 6.3-2.9-1.8-4.8-3.6-4.4-4.3.3-.6.3-.8-.2-.4-1.1 1-6.5-2-6.2-3.5.1-.6-.4-1.1-1.1-.9-1.1.2-8.6-4.8-10.2-6.9-.3-.4-9.5-7.4-20.6-15.6-11-8.2-21.6-16.2-23.5-17.6-20.5-15.9-19.2-14.7-17.5-17 .9-1.2 2.1-3.2 2.6-4.5.5-1.2 1.8-2.2 2.9-2.2s2.3-.5 2.7-1.2 2.2 3.3 4.1 9.5l3.4 10.7zm62.2-17.5c2 3.3 8.1 8.7 12.5 11.1 3.3 1.8 9.4 10.4 13.5 18.9 3.5 7.2 9 22.4 9 24.6 0 .5-1.9.9-4.2.9-4.1 0-4.7.4-12.4 8.5-8.1 8.6-8.1 8.6-9.6 6.3-.9-1.3-2.4-3.2-3.4-4.3-1.1-1.1-3.7-4.5-6-7.5s-5.7-7.3-7.7-9.5c-3.7-4.1-4.4-5.9-2.8-7 .6-.3.6-1.7-.1-3.6-.6-1.7-.8-5.7-.4-9.2 1.7-17.4 1.8-22.6.8-25.6-1.1-3.2-1.1-3.3 3.1-5.1 2.3-1.1 4.5-2 4.9-2 .3 0 1.6 1.6 2.8 3.5m-307.2 3.1c5.6 2.6 10.1 4.9 9.9 5.1-.3.2-5.5-2.1-11.8-5.2-13.7-6.6-12.5-6.6 1.9.1m224.5-4.2c2.1 1.6 2.1 2.5-.1 5.4l-1.7 2.2-3.8-2.5c-2-1.4-3.7-2.8-3.7-3.1 0-.5 5.9-3.3 7-3.3.3 0 1.3.6 2.3 1.3m-7.9 7 4 3.4-3.4 3.6c-1.9 2-3.8 3.6-4.2 3.6-.9 0-7.8-9-7.8-10.1 0-.9 4.9-3.8 6.5-3.9.6 0 2.8 1.5 4.9 3.4m-12.4-1c-.9 1.2-.3 2.6 3 7.1l4.2 5.7-2.6 2.7-2.5 2.6 4.4 3c2.5 1.7 4.5 3.2 4.5 3.5-.1.5-5.4 6.4-15.9 17.5l-5.7 6-4.9-1.3c-2.8-.8-5.2-1.6-5.4-1.8-.3-.2.5-2.3 1.6-4.7 1.2-2.3 2.3-5.8 2.6-7.7.2-1.9 2.3-6.7 4.6-10.6 2.3-4 5.3-10.5 6.8-14.5 1.4-4.1 3.1-7.7 3.7-8.1 1.9-1.3 2.9-.9 1.6.6M269 334c3 1.6 5.2 2.9 4.9 3-1 0-11.9-5.1-11.9-5.6 0-.8 1.6-.2 7 2.6m209 7.5c1.2 2.3.6 3.3-11.3 18.2-7 8.7-13.3 16.7-14.1 17.7-1.3 1.9-1.5 1.9-4 .2l-2.7-1.7 11.2-12c10.5-11.2 11.1-12.1 9.3-13.3-1-.8-3-2.3-4.4-3.5l-2.5-2.1 5.9-5.5 5.9-5.6 2.7 2.6c1.5 1.4 3.3 3.7 4 5m1.8-3.5c2.5 2.3 2.6 2.6 1.3 3.4-.5.4-2.4-1.3-4.2-3.5-3.4-4.3-1.7-4.3 2.9.1M309 352.3c17.3 7.9 34 15.6 37 17s13.8 6.4 24 11c17.3 7.9 27.8 12.8 60.5 27.9 32.4 15 47.5 22.1 47.2 22.5-.2.1-14.9-6.4-32.7-14.7-17.8-8.2-33-15.2-33.9-15.5-1-.3-2.2.6-3.3 2.5l-1.7 3-4.6-2.2c-5-2.4-5.1-2.6-3.1-5.3 1.3-1.9 1.5-1.9 5.5 0 2.3 1 4.3 1.6 4.6 1.3.3-.2-4.6-2.8-10.7-5.6-6.2-2.8-16.3-7.3-22.4-10.1-7.9-3.7-12.7-5.3-16.9-5.6-4.6-.4-6.5-1.1-8.7-3.2-1.5-1.4-2.5-3-2.2-3.5s0-.8-.7-.6c-.8.1-4.3-1.4-7.9-3.4-7.6-4.3-18.3-9.3-44.3-20.8-10.3-4.5-19-8.7-19.4-9.3-.8-1.3-3.6-2.5 33.7 14.6m297.7-4.5c2.8 1.8 10.2 5.3 16.4 7.8 6.3 2.5 12.7 5.5 14.2 6.6 3.3 2.4 8.7 12.9 8.7 17 0 3.3-.9 5.8-2.2 5.8-2 0-9.9 7.4-17 15.8l-7.3 8.6-.7-4.4c-1.8-10.3-3.1-15.7-4.4-18.2L613 384l-5.6 3.6c-3.1 2-5.7 3.4-5.9 3.2-1.3-1.5-6.7-13.6-8.3-18.8-1.1-3.6-3.2-9.3-4.6-12.8l-2.5-6.3 3.1-5.2c5.4-9 5.6-9.1 9.2-5.9 1.7 1.5 5.4 4.2 8.3 6m-379.2 4.7c2.4 5.5 7.7 16.9 14.3 30.5 7.1 14.9 11.2 23.8 11.2 24.5 0 .3-1.3.5-3 .5-1.6 0-5.5 1.2-8.7 2.6s-8.9 3.3-12.7 4.4l-6.9 1.8-5.1-3.6c-2.8-2-5.3-3.9-5.6-4.3-.3-.3-1.5-1.1-2.7-1.8-1.3-.6-3-2.6-3.9-4.4s-2-3.4-2.3-3.7c-2.3-1.8-8-9.8-7.3-10.4.4-.4.2-.6-.3-.4-.6.1-3.1-1.4-5.5-3.4l-4.4-3.8 2.2-2.2c2.6-2.9 4.2-7 4.2-11.2 0-4.5 3.8-8 15.6-14.6 5.2-2.9 11.3-6.7 13.7-8.5l4.2-3.3.9 4.2c.4 2.2 1.4 5.4 2.1 7.1m263.5-5.4c.3.3 2.2 1.7 4.2 3.1 2.1 1.3 3.5 2.8 3 3.2-.4.4-.2.6.4.4 1.4-.4 17.5 11.5 16.6 12.4-.4.3-4.7 1.8-9.7 3.1-20.1 5.6-25.3 8-32.1 14.6l-6.3 6.2-4.1-2.7-4.1-2.7 4.9-5.1c2.7-2.8 9.5-10.4 15.1-16.8 5.5-6.4 10.6-12 11.1-12.3 1.7-1.1 1.1-2.2-1.7-3.4-4.2-1.8-6.6-3.8-5.8-5 .5-.9 6.4 2.5 8.5 5m-5.6 0 3.5 2-12.8 14.7c-17.3 19.8-17.5 19.9-20.6 18.2-1.4-.7-2.5-1.7-2.5-2.2 0-.8 7.7-10.8 13.2-17.3.9-1.1 4.4-5.5 7.8-9.8 3.3-4.2 6.5-7.7 7-7.7s2.5.9 4.4 2.1M335 370c0 2.8-.2 3-4 3h-4v-10l4 2c3.3 1.7 4 2.6 4 5m77.2-1.9c8.1 2.2 8.9 3 6.6 7.2-.7 1.2-1.4 2.3-1.5 2.5 0 .2-2.3-.8-5-2.2-2.7-1.3-6.6-2.7-8.6-3.1-3.9-.8-4.3-1.5-2.7-4.6 1.3-2.4 1.6-2.4 11.2.2m116.6 7.2c16.4 12.6 20.9 15.8 31.2 22.2 9.2 5.7 12 8 12 9.7 0 .5-6.1.7-13.5.5-13.2-.4-13.6-.5-17.8-3.4-22.6-16.2-40.7-18.7-47.4-6.5-1 1.8-2.2 3-2.8 2.8-3.3-1.4-19-10.5-19.2-11.2-.2-.5 1.7-3 4.1-5.5 3.8-4 6-5.2 15.9-8.7 6.3-2.2 13.2-4.4 15.3-4.8 2.2-.4 5.3-1.3 6.9-2 1.7-.7 3.4-1.3 3.8-1.4.5 0 5.6 3.7 11.5 8.3M340 369.9c2.5 1.5 2.8 2 1.5 2.5-3.6 1.3-5.5.7-5.5-1.9 0-3 .1-3 4-.6m22 3.7c1.4.7 1.9 1.3 1.2 1.4-1.7 0-8.2-2.7-8.2-3.5s3.7.3 7 2.1m66.3-1c3.4.8 3.4 1.6-.2 5.6-2.7 3-3 3.1-6 1.9-3.6-1.6-3.5-1.2-1.6-5.7 1.1-2.6 1.9-3.4 3.2-3 1 .3 3 .8 4.6 1.2m-80.3 2.6c1.7 1.2 3 2.5 3 3 0 .4-3.4.8-7.5.8-7.7 0-8.3-.3-6.2-3.2 1.1-1.4 2.4-1.9 7-2.7.4 0 2.1.9 3.7 2.1m33.5-1.2c-.3.5-4 1-8.1 1-4.8 0-7.3-.4-6.9-1 .3-.6 4-1 8.1-1 4.8 0 7.3.4 6.9 1m12.7.5c6.1.8 7.4 2.4 5.4 6.4l-1.6 3-8-3.7c-4.3-2-7.9-4-8-4.3 0-1 4.4-2.8 6-2.4.8.2 3.6.6 6.2 1m15.7 1.4c3.1 1.7 2.6 3.1-.8 2.1-3.9-1.1-7.1-2.9-7.1-4 0-1 4.5.1 7.9 1.9m-75.7-1.3c.3.3.4 1.4.1 2.5-.8 2.8-7.3 2.8-7.3 0 0-1.8 1.5-2.7 5.1-3 .9 0 1.8.2 2.1.5m104.4.5c2.4.6 4.4 1.4 4.4 1.7 0 1.2-7.5 8.2-8.8 8.2-.7 0-2.6-.7-4.3-1.5l-3-1.6 2.8-3.9c3.2-4.5 2.9-4.4 8.9-2.9M326 376.9c0 1-.6 2.1-1.2 2.3-.7.3-8 .5-16.2.7-13.1.2-15.1 0-16.8-1.6-2-1.8-1.8-1.8 6.3-2.3 4.6-.3 12.8-.6 18.2-.8 9-.2 9.7-.1 9.7 1.7m-35.4 2.2c1.8 2 2.6 2.1 22.6 1.7l20.8-.3-.1 15.7c0 8.7-.4 16-.8 16.3-.5.2-5.4.8-11 1.1l-10.2.7-3.2-3c-3.8-3.6-9.6-6.3-14.6-7-2-.3-10.8.2-19.5 1.1-20.5 2.1-20.3 2.1-21.2-.7-.4-1.2-3.1-7.1-6-13-2.9-6-5-11.5-4.7-12.2.5-1.5 5.7-1.9 32.9-2.3 12.1-.2 13.2 0 15 1.9m97.2 1.3c3 1.5 5.1 3.2 4.9 3.9-.3.7-.9 1.1-1.5 1-.6-.2-.9.4-.6 1.1.3.9 0 1.4-.8 1.2-1.4-.2-10.3-4.2-18.3-8.1l-5-2.5 8 .3c6.3.3 9.1 1 13.3 3.1m61.6-.5c.3.4-.9 2.5-2.7 4.6-2.9 3.4-3.6 3.7-6.5 3-1.8-.3-3.2-.9-3.2-1.3 0-.3 1.9-2.5 4.2-4.9 3.3-3.4 4.5-4 5.9-3.2 1 .5 2 1.3 2.3 1.8m-38.9.3c2.5 1.2 4.5 2.6 4.5 3 0 1.2-2.9 6.8-3.5 6.8-1.6 0-11.5-5.6-11.5-6.5 0-1.8 3-5.5 4.5-5.5.8 0 3.5 1 6 2.2m5.9-.1c-.8 1.4-2.4 1-2.4-.6 0-.9.6-1.2 1.5-.9.8.4 1.2 1 .9 1.5m180.6 5.1c1.7 3.4 3 6.3 3 6.5 0 .1-2.3 1.4-5 2.8l-5 2.5-.9-2.2c-.5-1.3-1.8-4.7-3-7.6-2.6-6.6-2.6-7 .2-7.4 7.3-1.2 7.6-1 10.7 5.4m91.3-3.6c.7 3.6-3.1 7.9-6.1 7-2.9-1-2.8-1.9.9-6.1s4.5-4.3 5.2-.9m-332.4 3 10 4.7-.5 6.1c-.3 3.3-.7 8.4-1 11.2l-.5 5.1-6.1.7c-3.4.3-9.6.6-13.9.6H336v-33h4.9c3.7 0 7.3 1.1 15 4.6m15.6-1.2c3.3 1.6 9.5 4.5 13.7 6.5 8 3.7 8.7 4.5 6.6 7.4-1.2 1.5-1.6 1.5-4.3.2-1.6-.8-10.6-4.8-20-9-9.3-4.2-17.2-7.8-17.5-8.2-.3-.3 3.1-.3 7.5-.1 6.2.3 9.4 1 14 3.2m50.4-2c1.4.8 1.9 1.6 1.3 2-1.5.9-6.5-1.2-5.7-2.4.8-1.3 1.5-1.2 4.4.4m32.4 5.8c-2.5 2.6-7 3.8-8.6 2.2-.3-.4.8-2.4 2.5-4.5 3.1-3.8 3.1-3.8 5.9-2.2l2.9 1.7zm-262 3c4.3 4.6 9 10.2 10.5 12.5 1.6 2.3 6.1 6.5 10.1 9.3l7.2 5.1-13.1 6.5c-7.2 3.6-13.6 6.2-14.2 5.8-.7-.4-.8-.3-.4.5 1 1.5-23.6 13.4-32.5 15.8-5.9 1.5-7.5 1.6-13.2.4-4.9-1-7-1-8.6-.2-1.9 1.1-2.1.9-2.1-1.5 0-3.1 3.9-11.2 7.9-16.3 1.5-2 3.3-5.2 4-7.1 2.3-6.9 5.6-10.6 12.5-13.9 8.1-3.9 13.1-8.1 15.8-13.5 2.8-5.4 6.9-11.6 7.8-11.6.3 0 4.1 3.7 8.3 8.2m394.2 1.8c2.1 5.2 4.3 10.9 5.1 12.7 1.9 4.1 1.8 4.6-.7 3.3-1.1-.7-2.7-.9-3.6-.6-2.1.9-3.6-.3-2.4-1.8.8-.9-.9-2.3-6.5-5.5-4.1-2.4-7.8-4.1-8-3.8-.3.3 2.4 2.2 6 4.2s6.6 4.3 6.6 5.1-.3 1.4-.7 1.4c-1.8-.1-13.8-7.7-13.8-8.8s13.6-16.5 14.1-15.9c.1.1 1.9 4.5 3.9 9.7m-167.4-8c1.5.8 1.7 1.5.9 2.8-2.4 4.1-3.9 5.4-5.3 4.5-1.3-.7-1.3-1.3 0-4.6 1.7-4.1 1.7-4.1 4.4-2.7m12.8 1.6c7.5 3.3 7.2 4.8-.4 2.3-6.7-2.2-7.7-2.8-7-4 .8-1.2.5-1.3 7.4 1.7m-35.4-.6c1.1 1.8-.6 5.1-2.3 4.8-1.9-.4-2.3-2.7-.7-4.5q1.8-2.25 3-.3m276.6 1.8c9.2 2.8 12.5 4.7 19.1 11.2l5.7 5.7-5.2 1.6c-10.5 3.2-37.9 8-38.6 6.9-.4-.7-3.8-1.9-7.7-2.9-3.8-.9-7.5-2.3-8.2-3-1.7-1.7-1.9-1.7-9.4.7-3.4 1.1-6.5 2-6.6 2-.8 0 6.7-8.9 11.8-14.1 5.9-5.9 9.7-8.7 13.9-9.9 4.3-1.3 18.2-.3 25.2 1.8m-267.7 1.7c5.8 2.6 6.3 3.3 4.6 6.5-1.1 2-1.5 1.9-12.8-3.6-.6-.3 1.1-5.4 1.8-5.4.4 0 3.3 1.1 6.4 2.5m23.6 0c3.6 1.8 11.7 3.4 17.5 3.6 3.2.2 6.5 1.1 9.3 2.7l4.3 2.5-4 4.1c-2.1 2.2-5.5 5.9-7.5 8l-3.5 3.9-5.8-2.5c-15.7-6.8-28.3-13.2-28.3-14.4 0-3.1 1.2-4.3 3.8-3.8 2.3.4 3.1-.1 5-3.1 2.4-3.8 3.3-3.9 9.2-1m33.6.2c3 2.3 3.3 2.8 2.1 4-1.6 1.7-7.5.9-10.4-1.3-1.7-1.3-1.7-1.5.7-3.4 3.2-2.5 3.5-2.5 7.6.7m151.8 2.5c.8 2.9 1.7 6.6 1.9 8.3.3 1.6.8 4.6 1.2 6.6l.7 3.6-10 .6c-5.5.4-10.7.4-11.5.1-1.3-.5-5.7-9.4-5.7-11.5 0-.5 2.7-2.2 5.9-3.9 3.3-1.6 8.1-4.3 10.7-6 2.7-1.6 4.9-3 5.1-3 .1 0 .9 2.4 1.7 5.2M442.5 390c.3.5-.1 1-.9 1-.9 0-1.6-.5-1.6-1 0-.6.4-1 .9-1 .6 0 1.3.4 1.6 1m-60.3 6.6 12.7 5.7-2.2 4c-1.2 2.2-2.6 4.1-3.2 4.2-.5.2-6.1.6-12.2.9l-11.3.5v-4.8c0-8.7 1.2-17.2 2.4-16.7.6.3 6.8 3.1 13.8 6.2M477 395c.3.3 3.2 1.9 6.5 3.7 6.4 3.4 7.3 4.7 5.1 7.6-1.3 1.7-2 1.5-12.8-3.9-6.2-3.2-11.5-5.9-11.7-6.1-.3-.2.8-1.6 2.3-3.2l2.8-2.9 3.6 2.1c2.1 1.2 3.9 2.4 4.2 2.7m37.8-2.4c7.6 2.2 19.3 8.3 25.1 13.1.3.2-1.9 2.7-4.7 5.6-2.9 2.9-5.2 5.6-5.2 6 0 .7 3 5 7.7 11.2.5.6 2 2.7 3.6 4.7l2.7 3.7-5.9 4-6 3.9-3.6-3.9c-1.9-2.1-3.5-4.4-3.5-5s-4.2-5.2-9.4-10.4c-6.9-6.8-11.2-10.2-16.6-12.9-4-2-7.9-3.6-8.7-3.6s-1.3-.3-1.1-.8c5.9-12.2 7.7-14.4 13.7-16.2 4-1.2 5.8-1.1 11.9.6m-117.5 3c.7.7-1.3 5.4-2.4 5.4-1.4 0-2-2-1.4-4 .6-1.9 2.5-2.6 3.8-1.4m68 3.8c.8-.3 1.8-.1 2.2.5.4.7-.1.8-1.2.4-3.4-1.2 1.4 3.3 6.3 5.8 2.4 1.3 4.4 2.7 4.4 3.1 0 .6-6.7 13.4-7.6 14.7-.3.4-4.8-1.5-16.8-6.9l-6.9-3.2 7.8-7.8c5.6-5.6 8.2-7.6 9.1-6.9.6.5 1.8.7 2.7.3m-41.2 8.5c6.8 3.2 15.1 7.1 18.4 8.6 25.4 11.5 50.1 22.9 50.8 23.5.8.7-1.7 7-2.7 7-.2 0-4.2-1.7-8.8-3.9-4.5-2.1-13.5-6.2-19.8-9.1s-17.6-8.2-25-11.8c-8.6-4.1-15-6.5-17.5-6.6-5-.3-14.9-5.2-13.9-6.9 1.9-3.3 4.6-6.7 5.3-6.7.4 0 6.4 2.6 13.2 5.9m54.5-2.9c.2 0 .4.7.4 1.5 0 2-.4 1.9-4.5-.8-4.5-2.9-4.5-4.1.1-2.2 2 .8 3.8 1.5 4 1.5m-77.3 0c4 1.5 4.4 2.2 2.5 3.7-1.4 1.1-10.4 2.4-11.2 1.6-.6-.6 3.5-7.5 4.3-7.1.3.2 2.3 1 4.4 1.8m301.6.4c6.4 3.3 12.5 12.5 17.1 25.6 1.3 3.6 2.9 7.2 3.7 8.1 1.9 2.2 1.6 3.1-.7 2.4-3.6-1.1-20.7-.7-24.3.6-3.2 1.1-4.3.9-14.8-3.3-6.3-2.5-12.7-4.6-14.2-4.6-1.6 0-3.9-1-5.2-2.2-2.1-1.9-2.3-2.6-1.2-3.9 1-1.4 1-1.4-.5-.3-2 1.6-2.4 1-5.4-7.1-1.5-4.1-1.8-6-1-6.2 2.5-.8 26.5-5.5 27.3-5.4.4.1 1.5 0 2.3-.3.8-.4 4.2-1.5 7.5-2.6 3.3-1 6.1-2 6.3-2.1.2 0 1.5.5 3.1 1.3M484.6 408c1.8.7 2.4 1.4 1.7 2.1-1.2 1.2-6.3-.5-6.3-2.1 0-1.3 1.2-1.3 4.6 0m59-.1c.5.6 6.5 1.1 13.4 1.3l12.5.3.3 4.7c.2 3.8-.1 5-2 6.8-2.7 2.5-22.8 15.4-23.2 14.9-.1-.2-3.2-4.5-6.8-9.5l-6.6-9.1 5.1-5.2c5.5-5.5 5.8-5.6 7.3-4.2m94.4-.2c0 .5-.7 1.7-1.5 2.7-1.2 1.6-2.2 5.5-5.1 19.3l-.4 2.2-6.8-3.1c-9.9-4.5-22.3-10.8-25.4-12.9-1.4-1.1-3.1-1.9-3.7-1.9s-1.1-.4-1.1-.9 2.6-.9 5.8-.9c8.3 0 24.1-2 28.7-3.7 4.3-1.5 9.5-2 9.5-.8m-57.9 1.8c1.6.9 2.7 2 2.4 2.5-.9 1.5-2.7 1.1-5.2-.9-4-3.3-2.4-4.2 2.8-1.6m12.7 2c.4 1.6.2 1.6-2.7-.1-1.6-1-2.8-2.1-2.5-2.5.8-1.3 4.9.7 5.2 2.6M573 415c0 3.3-.4 6-1 6s-1-2.7-1-6 .4-6 1-6 1 2.7 1 6m-91.1-3.9c1.7.6 3.1 1.3 3.1 1.5 0 1-4.1 8.4-4.6 8.4-.3 0-1.8-.7-3.5-1.5l-2.9-1.6 2.2-3.9c1.3-2.2 2.3-4 2.4-4s1.5.5 3.3 1.1m11.6.4c3.3 1.5 2.4 1.8-2.4.9-1.7-.4-3.1-1-3.1-1.5 0-1.3 2-1 5.5.6m155-.4 4.3 1.1 3.2 9c3 8.3 3.6 9.2 7.8 11.9 2.5 1.6 5.7 2.9 7 2.9s7.6 2 13.9 4.5c9 3.6 11.8 4.3 12.9 3.4.7-.6 4.4-1.4 8.1-1.7l6.8-.5-11.1 11.9c-6.2 6.5-12.3 12.9-13.6 14.2l-2.5 2.2-10.9-8.3c-6-4.6-15.1-11-20.2-14.3-9.8-6.2-10-6.3-17.4-10.8-3.9-2.2-4.7-3.2-4.3-4.9.3-1.2 1.2-5.8 2.1-10.2s2-8.8 2.5-9.7c1.1-2.1 5-2.3 11.4-.7m-616.2 2.3c3.4.8 7.6 2 9.2 2.6 1.7.7 3.9 1.4 5 1.6s6.3 2.5 11.5 5.1c12.5 6.1 15.5 7.2 17.3 6.1 1.1-.6 1.7-.3 2.1.9.9 3.2 4.5 16.7 5 19.3.3 1.4 1.1 4.5 1.7 6.9.9 3.2.9 4.6.1 4.9-.6.2-4.8 3-9.3 6.3-9.8 7-20.9 12.6-28.4 14.2-5.3 1.1-7.7.8-20.7-1.9-3.1-.7-3.3-1.8-1.9-12.7.7-5.3.5-6.1-2.2-10-4.3-6.4-13.3-24.6-15.1-30.7-1.1-3.6-1.4-7-1-10.2l.6-4.7 10 .4c5.5.3 12.7 1.1 16.1 1.9m550.1-.2c1.8-.8 2.8-.7 4.3.3 1.7 1.3 1.6 1.4-.9 1.5-1.7 0-3.5 1.1-5.2 3.1-2.3 2.6-6.3 3.8-5.8 1.6.1-.4.2-2.5.2-4.7v-4l2.5 1.6c2 1.3 3.1 1.5 4.9.6m-84.4 2c4.4 1.3 12.3 7 15 10.8 2.5 3.5 2.5 3.8-.2 3.4-1.3-.2-5.9-.5-10.3-.7-6.5-.4-9.3-1.1-14.3-3.6L482 422l2.2-4.5c2.1-4.4 2.2-4.5 6.2-3.9 2.3.3 5.7 1 7.6 1.6m98.9 4c3.1 1.8 9.9 5.5 15.1 8.3 14.4 7.6 13.5 6.8 12.3 10.1-1.5 3.9-5.9 21.5-7.4 29.4-.6 3.6-1.4 6.8-1.5 7.1-.4.6-7-.6-10.4-1.8-2-.8-3-1-6.1-1.1-2.5-.2-2.7-.5-3.3-7.5-1.3-14.4-1.5-15.2-6.3-20.6l-4.4-5.1 2.7-2.3c2.3-2 2.5-2.6 1.5-4.5-1.3-2.4-.2-3.2 6.4-4.6 2.8-.6 3.2-.3 5.3 3.6 1.3 2.4 2.3 4.7 2.1 5.3-.1.5.5 2.6 1.4 4.5.8 1.9 1.3 3.8 1.1 4.2-.4.7 5.4 9.8 6.2 9.8 1.4 0 3.3-1.4 2.8-2.1-.3-.6.2-2.1 1-3.4.9-1.4 1.3-2.5.8-2.5-1.4 0-3.2 2.3-3.2 4.2 0 1-.2 1.8-.5 1.8-1.3 0-5.4-5.6-5-6.8.3-.7-.4-3-1.5-5.1-1-2.1-1.7-4.1-1.4-4.4s-.9-3-2.6-6l-3.1-5.5-5.2 1.4c-2.9.8-5.3 1.4-5.5 1.4s-.8-1.4-1.3-3c-.9-2.5-1.7-3-4.2-3h-3l2.3-2.5c3.3-3.5 7.9-3.3 14.9.7m-118.5 6c-1.7 3.3-1.6 3.3-5.4 1.3-2.9-1.5-2.9-1.5-1.2-4.4 1.6-2.8 1.7-2.8 4.8-1.3 3.2 1.5 3.3 1.6 1.8 4.4m96.1-.7c-1.6 1.4-4 2.5-5.3 2.5-1.2 0-4.1 1.2-6.3 2.7-2.5 1.7-4.3 2.3-4.9 1.7-.7-.7 1.1-2.5 4.8-5.1 4.6-3.4 6.5-4.2 10.2-4.2h4.5zm10.6-.3c.5.7 1.4 3.1 2 5.2 1 3.8.9 4.1-1.7 6-1.6 1.2-3 2-3.2 1.8s-1.5 1.1-3 2.8c-1.4 1.6-3.2 3-3.8 3-.7 0-1.4.4-1.6.8-.1.5-3.3 3.1-6.9 5.9l-6.5 5.1-2.1-3.2c-2-2.9-6.3-11.9-6.3-13 0-.8 14.6-9.6 15.9-9.6 1.7 0 8.5-3.6 9.9-5.3s6.1-1.4 7.3.5m-88.3 5.8c1 0 1.2.7.7 2.7-.3 1.6-.9 3.1-1.3 3.4-.4.4-4.6-1.2-9.4-3.5l-8.7-4.1 1.5-2.7 1.4-2.7 7.2 3.4c4 1.9 7.9 3.5 8.6 3.5m17 1.5c.9.9-1.4 4-2.8 3.7-.6-.1-.9.2-.5.7.5.9-.5 2.9-3.1 6.9-.2.3-8.3-4-10.2-5.4-.5-.3 3-5.7 4.3-6.7 1.1-.9 11.3-.2 12.3.8m-20.5 5.9c7.4 3.6 15 8.1 17.3 10.3 4.5 4.1 8 9 7.1 9.9-.3.3-1.2-.7-2-2.3-3-5.7-10.6-11.4-24.1-17.9-7.2-3.4-12.7-6.3-12.3-6.3.5-.1 6.8 2.8 14 6.3m30.7 1.4c3.4 4 6.1 7.4 5.9 7.6-2.9 2.3-10 6.6-10.9 6.6-1.2 0-10-8.1-10-9.3s7.5-12.7 8.1-12.5c.3.2 3.4 3.6 6.9 7.6m33-5.7c0 .5-.7.9-1.5.9-1.5 0-2-1.2-.9-2.3.8-.8 2.4.1 2.4 1.4m-3.7 1.6c.4.3-.2 1.2-1.3 2-1.9 1.4-1.9 1.4.6 7 1.3 3.1 2.2 6.4 1.9 7.2-.3.9-.3 1.2.1.8.9-.9 4.4 2.2 4.3 3.7-.1.6-2.3 3-4.9 5.4l-4.8 4.3-2.3-3c-1.3-1.6-5-5.8-8.1-9.3-4.2-4.7-5.4-6.6-4.6-7.5 1.5-1.8 2.3-1.6 3.4.7.7 1.4 1.3 1.7 2.4 1 1.3-.8 1.3-1-.1-1-.9 0-2-.7-2.3-1.5-.4-1.1 1.4-2.9 6.2-6 6.7-4.4 8.3-5.1 9.5-3.8m78.1 3.3c8.5 3.6 30 18.2 56.4 38.3l26.3 20-9.4 9.6c-5.2 5.3-14.4 14.8-20.5 21.1l-11 11.5-3.4-1.6c-1.8-.9-7.1-4.7-11.7-8.3-13.6-10.8-19.9-13.2-30.3-11.5-9.9 1.6-19.8 1.8-19.8.5s6.8-34.4 11.4-55.6c1.4-6.3 3.5-14.6 4.6-18.5 1.1-3.8 2-7.1 2-7.2 0-.6.9-.3 5.4 1.7m-37.9 19.3c.7 8.6 1.4 13.9 1.9 14.4.2.2 4.5 1.2 9.7 2.4 5.1 1.1 9.5 2.1 9.6 2.3.2.1-.8 5.4-2.2 11.7s-3.4 15.9-4.5 21.3c-2 10.1-2.6 11.9-3.4 9.5-.2-.8-.9-2.9-1.5-4.7-.7-2.3-.7-4-.1-5.2.6-1 1-2.1 1-2.4s-3.4-4.4-7.5-9.2c-6.9-7.8-8.7-11.3-5.6-10.6 1.2.2 1.5-1.1.4-2.1-.3-.4-1.2.1-1.9 1.1-1.2 1.6-1.5 1.5-3.9-1.5-1.4-1.7-5.5-6.7-9.3-11-3.7-4.3-8.5-10-10.6-12.6l-4-4.9 3.4-2.6c1.8-1.5 6.7-5.3 10.9-8.5l7.6-5.7 4.7 5.1c4.5 4.9 4.6 5.2 5.3 13.2m-107.2-10.7c2 1 3.7 2.1 3.7 2.6 0 1.1-.1 1.1-7.4-2.3-3.6-1.7-6.6-3.5-6.6-4 0-.9 3 .2 10.3 3.7m54.7 13c0 .7.6 1.4 1.4 1.7s2.2 1.7 3.2 3.1c1.5 2.4 1.5 2.8.1 4.9-.9 1.4-4.6 3.6-8.9 5.4l-7.4 3-1.9-4.6c-1-2.5-2.5-6.2-3.4-8.1-.8-1.9-1.5-3.7-1.6-4 0-.3-.6-1.5-1.4-2.8-1.6-3.1-1.4-3.5 4.4-7.5l5-3.5 5.2 5.7c2.9 3.1 5.2 6.1 5.3 6.7m25.1 3.6c5.7 7 7.5 9.1 24.3 29 6.4 7.6 11.6 14.4 11.6 15.1 0 .8-1.1 1.9-2.5 2.5-1.4.7-3.6 1.7-5 2.4-3.8 1.7-2.3 2 1.8.3 2-.8 3.9-1.5 4.1-1.5.6 0 2.9 8.1 2.4 8.4-.2.1-1.7.6-3.5 1.3-3.1 1-3.4.9-6-2.6-1.5-2-3.2-4.1-3.8-4.7-.5-.6-3-3.5-5.5-6.4-4.3-5.2-7.8-9.3-25.9-30.5l-8.4-9.9 5.2-4.8c2.9-2.6 5.4-4.8 5.6-4.8s2.7 2.8 5.6 6.2m-9.9 13.9c3.5 4.2 8.5 10.1 11.2 13.2 2.6 3.1 4.6 6.2 4.3 6.9-.2.7-6.8 4.1-14.5 7.4l-14.1 6.2-3-7.7c-1.6-4.2-4.3-10.6-6-14.3-4.4-9.9-4.5-9.5 3.3-12.9 5.6-2.4 7.2-2.7 8.5-1.7s1.4 1 .4-.1c-.9-1.1-.8-1.9.4-3.8.9-1.3 1.9-2 2.4-1.6.4.4 3.6 4.2 7.1 8.4m178.1 18.3c-1.6 2.8-4.8 5.6-6.6 5.6-1 0-3.7-1.4-5.9-3.1l-3.9-3.1 4.3-4.4 4.3-4.3 4.2 4.1c2.3 2.3 3.9 4.6 3.6 5.2M532 490.5c0 .5-.5.3-1-.5s-1-2-1-2.5c0-.6.5-.3 1 .5s1 1.9 1 2.5m4.7 12.2c-.3.2-1.2-1.5-2.2-3.9-2.8-6.9-2.7-7.8 0-1.9 1.4 2.9 2.4 5.5 2.2 5.8m188.3 2.4c0 1.2-2.9 3.1-3.8 2.5-.6-.3-.9.1-.8 1 0 .9-.7 2.1-1.6 2.8-2.2 1.4-5.4-.3-5.2-2.8.1-.9-.3-1.3-.8-1s-1.8-.2-2.9-1.2c-1.9-1.7-1.9-1.8 1.8-5.4l3.7-3.8 4.8 3.6c2.6 2 4.8 3.9 4.8 4.3m-148.9-3.9c2.5 2 16.9 19.5 16.9 20.5 0 .5-4.2 2.4-9.2 4.3-5.1 1.8-13.4 5.3-18.5 7.7s-9.6 4.3-10.1 4.3-1.5-1.5-2.2-3.3c-.7-1.7-1.8-4.6-2.5-6.2-3.1-7.1-6.5-15.9-6.2-16.1.2-.1 17.7-8.4 23.7-11.1 3.4-1.6 6.3-1.6 8.1-.1m-36.2 8.3c0 .5-.6-.1-1.4-1.5s-1.4-3-1.4-3.5c0-.6.6.1 1.4 1.5s1.4 2.9 1.4 3.5m8.1 19c3.4 8.2 6.8 15.7 7.4 16.5.7.8 4.9 10.3 9.3 21 4.5 10.7 13.6 32.8 20.4 49 6.7 16.2 13.4 32.9 14.9 37s3 8.4 3.5 9.5c.4 1.1-.2.5-1.4-1.3s-2.1-3.6-2.1-4.1-2.3-6.3-5.1-12.8-9.5-22.6-14.9-35.8-13.7-32.3-18.5-42.4c-4.7-10.1-8.4-18.9-8.1-19.6.2-.7-.1-1.6-.9-1.8-.7-.3-1.6-1.9-2-3.5-.3-1.6-2.6-8.1-5-14.3-8.1-21.3-6.8-19.9 2.5 2.6m92.7-9.2c4.1 1.1 8.8 4 16.7 10.4 4.4 3.6 9.2 7.1 10.8 7.9 1.5.8 2.8 1.8 2.8 2.2 0 .9-31.2 32.2-32.1 32.2-.7 0-8-8.5-14.9-17-1.9-2.4-6.1-7.4-9.3-11.2-3.7-4.2-5.6-7.2-5.1-8 .4-.7.4-1 0-.6-1.1.9-11.6-10.1-11.6-12.2 0-1.1 11.1-2.9 19.7-3.1 3.9-.1 7.8-.6 8.5-1.1 1.3-.9 10.5-.6 14.5.5m-26.2 27.4c10.5 12.4 24.2 28.8 30.7 36.4 6.4 7.6 11.9 14.2 12.2 14.8.7 1.1-6.9 5.2-8 4.3-.4-.4-.5-.2-.1.4.3.5-2 2.5-5.1 4.4-3.1 1.8-5.9 3.6-6.2 4-1 1.4-14.9 9-20 11-2.9 1.2-5.9 1.9-6.7 1.6s-1.1-.1-.8.4c.3.6-.2 1.3-1.2 1.7-1 .3-4 1.6-6.8 2.8-9 4-8.9 4-10.7-.8-3.4-8.9-16-39.4-17.8-43.2-1-2.2-3.9-9-6.4-15-2.5-6.1-6.3-15.2-8.5-20.3l-4-9.2 6.2-2.9c16.9-7.8 29.9-13 32.7-13.1.8 0 10.1 10.2 20.5 22.7m-65.8-8.1c2.3 6.5 4.1 11.9 4 12-2.6 2.1-11 6.3-13.4 6.7-5.2 1-3.8-1.1 1.7-2.7 6.4-1.9 7.3-2.5 6.2-3.9-.5-.7-1.5-2.8-2.2-4.7s-2.3-5.8-3.5-8.5c-3.7-8.4-3.8-9.1-1.3-10.3 1.3-.6 2.8-.9 3.3-.8.6.1 2.9 5.6 5.2 12.2m6 15.1c.4 1 3.7 8.1 7.3 15.8 8.8 18.3 28.5 66.4 27.6 67.3-.4.4-1.9.7-3.4.8s-4.7 1.1-7.2 2.2c-2.5 1.2-8.8 3.9-14 6.1-6 2.6-9.4 4.5-9.1 5.3.2.7.6 2.1.8 3.1.4 1.4-1.9 2.9-12.1 7.7-7 3.3-13 6-13.4 6-1.5-.1-15.7-22.8-16.8-27-2.2-8.2-2.4-14.7-.8-22.7.8-4.3 1.7-8.9 2-10.3 1.2-6.1 3.6-13 4.5-13 .6 0 .8-.4.5-.9-.6-.9 2.9-11.6 5.9-18.6.7-1.7 2-5.3 2.9-8 2.3-7.1 2.6-7.4 8.5-8.5 3-.5 7.5-2.3 10-3.9 5.5-3.5 6-3.6 6.8-1.4m114.7 31.1c3.2 3.5 3.5 3-4.7 9.5l-4.7 3.8-2.8-3.2c-1.5-1.8-5.7-6.9-9.4-11.3-3.8-4.4-6.8-8.7-6.8-9.5s1.9-3.5 4.2-5.8l4.3-4.4 8.5 8.9c4.7 4.8 9.8 10.2 11.4 12m10.9 12.6c6.4 6.9 7.8 9.3 7.1 12.3-.7 3.1-4.9 10.9-6.3 11.8-.5.3-4.6-3.9-9.2-9.2-4.5-5.4-8.9-10.6-9.8-11.6-1.4-1.7-1.4-1.9 0-2.7.9-.5 3.8-2.8 6.5-5l4.9-4 1.9 2.6c1.1 1.5 3.3 4.1 4.9 5.8m-19.9 4c.6.7 5.1 6.1 9.9 12l8.8 10.5-2.8 4.8c-1.5 2.7-3.1 4.9-3.5 5.1s-.8.8-.8 1.3-1.5 3-3.4 5.6c-6.2 8.8-8.9 15.8-15.7 41.3-1.6 6.3-3.4 11.9-3.8 12.3s-1.5-.2-2.3-1.5c-.9-1.3-2.8-3.7-4.3-5.3-1.4-1.7-9.2-11.6-17.2-22.2-7.9-10.5-15.2-19.4-16-19.7-.8-.4-3.1.3-5 1.5s-3.5 2-3.7 1.8c-.6-.8-5.6-13.8-5.6-14.7 0-1 8.8-5.1 19.5-9.2 9.5-3.6 11.8-4.7 18.7-9.4 1.5-1 3.3-1.4 3.9-1q1.05.6.6-.3c-.9-1.4 7-6.6 8.5-5.7.6.4.8.3.4-.4-.4-.6 1.9-2.5 5.6-4.6 7.3-4.1 6.8-4 8.2-2.2M587.5 639c.5.8 1.1.7 2.1-.1 1.1-.9 1.6-.6 2.4 1.6.5 1.4 1.8 4.7 2.9 7.3 5.1 12.9 6.1 15.6 5.8 15.7-.1.1-2.8 1.4-6 2.8-3.9 1.9-5.6 3.1-5.1 4 .4.6 3.1 4.8 5.9 9.2s5.4 8.5 5.8 9.2c.5.8-1.6 2.4-6.8 4.8-4.1 1.9-10.9 5.1-15 7s-7.8 3.5-8.2 3.5-3.5 1.3-6.8 3c-3.3 1.6-6.2 2.6-6.6 2.2-3-3.3-26-39.7-25.3-39.9 5-1.9 25.9-13 25.8-13.8-.1-.6-.4-1.9-.8-3-.5-1.8 1.1-2.7 13.7-8.1 16.1-7 15.4-6.8 16.2-5.4m23.4 9.4c.8 1 .8 1.6-.1 2.3-1.5 1.2-7.5 4.3-8.3 4.3-1.3 0-.3-3.6 1.7-5.7 2.4-2.6 5-3 6.7-.9m10.6 14.3c4.4 5.9 12.2 15.9 17.3 22.2 5 6.3 9.2 11.9 9.2 12.6 0 2.3-2.7 4.5-8.3 6.5-3.2 1.2-5.9 2-6.1 1.8-.1-.1-3.2-4.1-6.8-8.8-7.7-10.1-17.1-24.3-18.9-28.5-.6-1.7-2-5-3.1-7.4s-1.8-4.4-1.6-4.6c1-.8 8.5-4.4 9.3-4.5.6 0 4.7 4.8 9 10.7M604 668c.7 1.7 2.1 3.6 3 4.3 1.7 1.2 2 1.7 2 3.8 0 .5.5.7 1.2.3s.8-.3.4.4c-.9 1.4 1.2 5.5 2.4 4.7.5-.3 1.2 0 1.6.6.5.8.3.9-.6.4-.9-.6-1.2-.4-.8.7.4 1-.7 2.1-3.8 3.6-2.5 1.2-4.8 2.2-5.3 2.2-1 0-13.5-18.9-12.9-19.5.7-.7 9.3-4.4 10.4-4.4.6-.1 1.7 1.3 2.4 2.9m13.4 22c2.9 4.4 3.2 6 1.3 6-.7 0-2.9.9-4.9 2l-3.7 2-2.7-4.6c-1.4-2.5-2.4-4.8-2-5.1.7-.7 7.7-4.1 8.7-4.2.4-.1 1.8 1.7 3.3 3.9m36.6 8.6c1.3 1.9 1.9 3.9 1.4 4.3-1.9 1.6-14.6 10.2-15.5 10.4-.5.1-1.8-1.2-3-3l-2-3.1 2.3-.8c1.3-.4 2.5-.9 2.8-.9 4.2-.9 8-3.8 9.1-6.9.7-2 1.6-3.6 2-3.6s1.7 1.6 2.9 3.6m-22.5 13c5.2 7.9 9.5 14.6 9.5 14.9 0 .6-7.6 4.5-8.9 4.5-.6 0-5.6-6.7-11-15l-10-14.9 4.7-2.4c2.6-1.3 5-2.2 5.5-2 .4.2 5 6.9 10.2 14.9M643 729c0 .5-.9 1.4-2 2-1.6.8-2 .8-2-.4 0-1.3 1.3-2.3 3.3-2.5.4-.1.7.3.7.9"/>
  <path d="M596 88c-.9.6-1 1-.3 1 .6 0 1.5-.5 1.8-1 .8-1.2.4-1.2-1.5 0m-10.5 30c-.3.6.1.7.9.4 1.8-.7 2.1-1.4.7-1.4-.6 0-1.3.4-1.6 1m52.5 45.9c0 .6.4 1.3 1 1.6s.7-.1.4-.9c-.7-1.8-1.4-2.1-1.4-.7m-42 5.1c0 .5.5 1 1.1 1 .5 0 .7-.5.4-1-.3-.6-.8-1-1.1-1-.2 0-.4.4-.4 1m-.9 9.6c0 1.1.3 1.4.6.6.3-.7.2-1.6-.1-1.9-.3-.4-.6.2-.5 1.3m8.9 9.1c0 .6.8 1.7 1.8 2.4 1.6 1.3 1.6 1.3.2-.6-.8-1.1-1.6-2.2-1.7-2.4q-.3-.3-.3.6m3 9.7c0 .2.7.7 1.6 1 .8.3 1.2.2.9-.4-.6-1-2.5-1.4-2.5-.6m-83-52c0 .2.7.7 1.6 1 .8.3 1.2.2.9-.4-.6-1-2.5-1.4-2.5-.6m23.9 2.3c-1.3 1.6-1.2 1.7.4.4.9-.7 1.7-1.5 1.7-1.7 0-.8-.8-.3-2.1 1.3m-18.1 1c.7.3 1.6.2 1.9-.1.4-.3-.2-.6-1.3-.5-1.1 0-1.4.3-.6.6m13.8 1.8c-1.1.8-1.7 1.7-1.4 2 .2.3 1.3-.4 2.3-1.5 2.1-2.3 1.8-2.5-.9-.5m-39.9 3.6c.7.7 1.5 1 1.8.7s-.2-.9-1.2-1.2c-1.4-.6-1.5-.5-.6.5m-26.9 7.6c.7.3 1.6.2 1.9-.1.4-.3-.2-.6-1.3-.5-1.1 0-1.4.3-.6.6m40 36c.7.3 1.6.2 1.9-.1.4-.3-.2-.6-1.3-.5-1.1 0-1.4.3-.6.6m53-1c.6.2 1.8.2 2.5 0 .6-.3.1-.5-1.3-.5s-1.9.2-1.2.5m-171.9-18c-1.3 1.6-1.2 1.7.4.4s2.1-2.1 1.3-2.1c-.2 0-1 .8-1.7 1.7m276.6 17.4c-.4.6-.5 1.2-.2 1.5.2.3.7-.2 1-1.1.7-1.7.1-2-.8-.4m-17.4 6.5c0 1.1.3 1.4.6.6.3-.7.2-1.6-.1-1.9-.3-.4-.6.2-.5 1.3m-367.6 5.5c-.4.6-.5 1.2-.2 1.5.2.3.7-.2 1-1.1.7-1.7.1-2-.8-.4m185.2 81c.7.7 1.5 1 1.8.7s-.2-.9-1.2-1.2c-1.4-.6-1.5-.5-.6.5m-26.2 2c-.4.6-.5 1.2-.2 1.5.2.3.7-.2 1-1.1.7-1.7.1-2-.8-.4m-11.8-26.7c-.4 1-.1 1.3.8.9.8-.3 1.2-.9.9-1.4-.7-1.2-1.1-1.1-1.7.5m-129.1-36.5c-.4.5.3.7 1.4.4 2.3-.6 2.6-1.3.6-1.3-.8 0-1.7.4-2 .9m-1.1 10.1c-.3.6.1.7.9.4 1.8-.7 2.1-1.4.7-1.4-.6 0-1.3.4-1.6 1m272.1 16.3c.3 1 .9 1.5 1.2 1.2s0-1.1-.7-1.8c-1-.9-1.1-.8-.5.6m1.4 7.2c-1.1 1.3-1 1.4.4.9.9-.3 1.6-1 1.6-1.5 0-1.3-.6-1.1-2 .6m-2 6.3c0 .4-1.6 1.4-3.6 2.1-1.9.7-3.4 1.5-3.1 1.7.7.7 7.7-2.6 7.7-3.6 0-.6-.2-1-.5-1s-.5.4-.5.8m-5 5.2c-.8.5-1 1-.5 1 .6 0 1.7-.5 2.5-1s1.1-1 .5-1c-.5 0-1.7.5-2.5 1m-58.9 6.6c0 1.1.3 1.4.6.6.3-.7.2-1.6-.1-1.9-.3-.4-.6.2-.5 1.3M590 286c-.8.5-1 1-.5 1 .6 0 1.7-.5 2.5-1s1.1-1 .5-1c-.5 0-1.7.5-2.5 1m-34 18c0 .5.5 1 1.1 1 .5 0 .7-.5.4-1-.3-.6-.8-1-1.1-1-.2 0-.4.4-.4 1m-9 5c-.8.5-1 1-.5 1 .6 0 1.7-.5 2.5-1s1.1-1 .5-1c-.5 0-1.7.5-2.5 1m-263.4-24.8c.3.5 1 .6 1.5.3 1.3-.9 1.1-1.2-.6-1.2-.8 0-1.2.4-.9.9m92.6 11.8c0 1.4.2 1.9.5 1.2.2-.6.2-1.8 0-2.5-.3-.6-.5-.1-.5 1.3m-122.7 2.1c-.4.6-.5 1.2-.2 1.5.2.3.7-.2 1-1.1.7-1.7.1-2-.8-.4m-7.5.3c0 .2.8 1 1.8 1.7 1.5 1.3 1.6 1.2.3-.4s-2.1-2.1-2.1-1.3M353.2 324c0 1.4.2 1.9.5 1.2.2-.6.2-1.8 0-2.5-.3-.6-.5-.1-.5 1.3M644 300.6c0 1 .5 2.6 1 3.4.8 1.1.9.7.4-1.5-.8-3.7-1.4-4.5-1.4-1.9m26.7 9.5c.7.7 1.5 1 1.8.7s-.2-.9-1.2-1.2c-1.4-.6-1.5-.5-.6.5m15.9 2.6c-.6 1.4-.5 1.5.5.6.7-.7 1-1.5.7-1.8s-.9.2-1.2 1.2M170.5 302c-.3.6.1.7.9.4 1.8-.7 2.1-1.4.7-1.4-.6 0-1.3.4-1.6 1m33 19c-.3.5-.1 1 .4 1 .6 0 1.1-.5 1.1-1 0-.6-.2-1-.4-1-.3 0-.8.4-1.1 1m-3.3 2.2c-1.2 1.2.1 4.8 1.9 4.8.6 0 .3-.7-.6-1.6-1.2-1.2-1.3-1.9-.4-3 1.4-1.7.8-1.9-.9-.2m214.4-7.5c-.6 1.4-.5 1.5.5.6.7-.7 1-1.5.7-1.8s-.9.2-1.2 1.2m-4.7 7c-1.3 1.6-1.2 1.7.4.4.9-.7 1.7-1.5 1.7-1.7 0-.8-.8-.3-2.1 1.3M654 339.9c0 .6.4 1.3 1 1.6s.7-.1.4-.9c-.7-1.8-1.4-2.1-1.4-.7m12.5 27.1c-.3.5-.1 1 .4 1 .6 0 1.1-.5 1.1-1 0-.6-.2-1-.4-1-.3 0-.8.4-1.1 1m-170.2-45.5c0 .8.4 1.2.9.9s.6-1 .3-1.5c-.9-1.3-1.2-1.1-1.2.6m5.2 1.5c-.3.6.1.7.9.4 1.8-.7 2.1-1.4.7-1.4-.6 0-1.3.4-1.6 1m-42-6c-.3.5-.1 1 .4 1 .6 0 1.1-.5 1.1-1 0-.6-.2-1-.4-1-.3 0-.8.4-1.1 1M76 335c0 .5.5 1 1.1 1 .5 0 .7-.5.4-1-.3-.6-.8-1-1.1-1-.2 0-.4.4-.4 1m3 2c0 .5.5 1 1 1 .6 0 1-.5 1-1 0-.6-.4-1-1-1-.5 0-1 .4-1 1m4 1c.8.5 2 1 2.5 1 .6 0 .3-.5-.5-1s-1.9-1-2.5-1c-.5 0-.3.5.5 1m4 .4c0 .2.8 1 1.8 1.7 1.5 1.3 1.6 1.2.3-.4s-2.1-2.1-2.1-1.3m28.8 5.3c.7.3 1.6.2 1.9-.1.4-.3-.2-.6-1.3-.5-1.1 0-1.4.3-.6.6m-27.4 9.5-2.9 3.3 3.3-2.9c3-2.8 3.7-3.6 2.9-3.6-.2 0-1.6 1.5-3.3 3.2m4.1 12.8c-.3.5-.1 1 .4 1 .6 0 1.1-.5 1.1-1 0-.6-.2-1-.4-1-.3 0-.8.4-1.1 1m-10.1 56.2-1.9 2.3 2.3-1.9c2.1-1.8 2.7-2.6 1.9-2.6-.2 0-1.2 1-2.3 2.2m1.9 21.2c.7 1.4 1.3 2.3 1.5 2.1.7-.6-.9-4.5-1.8-4.5-.4 0-.3 1.1.3 2.4m395.7-114c0 .2.7.7 1.6 1 .8.3 1.2.2.9-.4-.6-1-2.5-1.4-2.5-.6m58.6 43.4c-.3.5.1.9.9.9s1.2-.4.9-.9c-.3-.4-.7-.8-.9-.8s-.6.4-.9.8m30.4-24.9c0 .6.4 1.3 1 1.6s.7-.1.4-.9c-.7-1.8-1.4-2.1-1.4-.7m-9 22.3c0 .4.6 1.3 1.3 2s2 2.3 2.9 3.6 1.8 2 2 1.5c.2-.4-1.1-2.4-2.9-4.3s-3.3-3.2-3.3-2.8m38.5-25.2c1 1.1 2 2 2.2 2s-.2-.9-.9-2-1.7-2-2.2-2-.1.9.9 2m-363.3 50c0 1.4.2 1.9.5 1.2.2-.6.2-1.8 0-2.5-.3-.6-.5-.1-.5 1.3m4.4 1.5c-.3.8-.1 1.5.4 1.5.6 0 1-.7 1-1.5s-.2-1.5-.4-1.5-.6.7-1 1.5m3.4-.4c0 .5.5.7 1 .4.6-.3 1-.8 1-1.1 0-.2-.4-.4-1-.4-.5 0-1 .5-1 1.1M31 448c-1.8 1.2-.2 1.2 2.5 0 1.3-.6 1.5-.9.5-.9-.8 0-2.2.4-3 .9m33.5 3c-.3.6.1.7.9.4 1.8-.7 2.1-1.4.7-1.4-.6 0-1.3.4-1.6 1m7.7 7.6c-1.8 3.6-2.8 6.3-2.3 6 1.1-.7 6.3-11.7 5.8-12.2-.2-.2-1.8 2.6-3.5 6.2m535.8-4.2c0 .2.8 1 1.8 1.7 1.5 1.3 1.6 1.2.3-.4s-2.1-2.1-2.1-1.3m-57-4.4c0 .5.5 1 1.1 1 .5 0 .7-.5.4-1-.3-.6-.8-1-1.1-1-.2 0-.4.4-.4 1m132.6 69.2c.3.5 1 .6 1.5.3 1.3-.9 1.1-1.2-.6-1.2-.8 0-1.2.4-.9.9m-87-40.3c-.4.5-.2 1.2.3 1.5.5.4 1.2.2 1.5-.3.4-.5.2-1.2-.3-1.5-.5-.4-1.2-.2-1.5.3m-11.9 12.8c.3.7.6 1.3.8 1.3s.5-.6.8-1.3c.3-.8-.1-1.4-.8-1.4s-1.1.6-.8 1.4m-3.2 1.4c-1 1.5.3 2.5 1.6 1.2.7-.7.7-1.3.1-1.7-.6-.3-1.4-.1-1.7.5m-4 3.9c.3.5 1.1 1 1.6 1 .6 0 .7-.5.4-1-.3-.6-1.1-1-1.6-1-.6 0-.7.4-.4 1m23.5 43.4c0 .2.8 1 1.8 1.7 1.5 1.3 1.6 1.2.3-.4s-2.1-2.1-2.1-1.3m26.5 29.6c1 1.1 2 2 2.3 2s-.3-.9-1.3-2-2-2-2.3-2 .3.9 1.3 2m5.1 6.2c1 1.4 2.1 2.4 2.3 2.2.3-.3-.6-1.5-1.8-2.7l-2.4-2.2zm-2.6 9.4c0 .8.5 1.2 1 .9.6-.4.8-1.1.5-1.6-.9-1.4-1.5-1.1-1.5.7m-50 3.6c0 .9.7 1.9 1.6 2.2 1.5.6 1.5.4.3-1.1-.7-1-1.5-2-1.6-2.2-.2-.2-.3.3-.3 1.1m6.5 4.8c-.4.6-1.6.8-2.8.5-1.8-.5-1.9-.4-.5.5 1.7 1.1 4.8.4 4.8-1.1 0-1.2-.7-1.1-1.5.1m5.5 2.9c0 .5.7 1.2 1.6 1.5 1.4.5 1.5.4.4-.9-1.4-1.7-2-1.9-2-.6m68 17.1c-.9.6-1 1-.3 1 .6 0 1.5-.5 1.8-1 .8-1.2.4-1.2-1.5 0m-3.5 2c-.3.5-.1 1 .4 1 .6 0 1.1-.5 1.1-1 0-.6-.2-1-.4-1-.3 0-.8.4-1.1 1m-3 2c-.3.5-.1 1 .4 1 .6 0 1.1-.5 1.1-1 0-.6-.2-1-.4-1-.3 0-.8.4-1.1 1m-10.6 7.1-2.4 2 2.8-1.7c1.5-.9 2.7-1.8 2.7-2 0-.8-.8-.4-3.1 1.7m-45.2 10.6c.3.7.6 1.3.8 1.3s.5-.6.8-1.3c.3-.8-.1-1.4-.8-1.4s-1.1.6-.8 1.4m46.8 13.4c-.4.6-.5 1.2-.2 1.5.2.3.7-.2 1-1.1.7-1.7.1-2-.8-.4M633 659.4c0 .2.7.7 1.6 1 .8.3 1.2.2.9-.4-.6-1-2.5-1.4-2.5-.6M552 672c-.9.6-1 1-.3 1 .6 0 1.5-.5 1.8-1 .8-1.2.4-1.2-1.5 0m7 26.9c.5 1.1 1.5 2.3 2.1 2.7.6.3.3-.5-.6-2-2-3-3-3.5-1.5-.7M559 2c-.6 1.1-.8 2-.6 2 .3 0 1-.9 1.6-2s.8-2 .6-2c-.3 0-1 .9-1.6 2m-33.4.3c.3 1 .9 1.5 1.2 1.2s0-1.1-.7-1.8c-1-.9-1.1-.8-.5.6M620.5 19c-.3.6.1.7.9.4 1.8-.7 2.1-1.4.7-1.4-.6 0-1.3.4-1.6 1M539 21c0 .5.5 1 1.1 1 .5 0 .7-.5.4-1-.3-.6-.8-1-1.1-1-.2 0-.4.4-.4 1m-255.7 1.5c0 .8.4 1.2.9.9s.6-1 .3-1.5c-.9-1.3-1.2-1.1-1.2.6m267.4 4.2c-.4.3-.7 1.3-.7 2.2.1 1.3.3 1.3 1.1-.2 1.1-1.9.8-3.3-.4-2m139.1 3c.7.3 1.6.2 1.9-.1.4-.3-.2-.6-1.3-.5-1.1 0-1.4.3-.6.6m-322.2 5c-.6 1.4-.5 1.5.5.6.7-.7 1-1.5.7-1.8s-.9.2-1.2 1.2M515 35c-2.1.7-2.1.8-.5.9 1.1 0 2.7-.4 3.5-.9 1.8-1.1.5-1.1-3 0m-5.2 1.7c.7.3 1.6.2 1.9-.1.4-.3-.2-.6-1.3-.5-1.1 0-1.4.3-.6.6m-264.2 3.6c.3 1 .9 1.5 1.2 1.2s0-1.1-.7-1.8c-1-.9-1.1-.8-.5.6m2.9 1.7c.3.5.8 1 1.1 1 .2 0 .4-.5.4-1 0-.6-.5-1-1.1-1-.5 0-.7.4-.4 1m363.9 1.2-1.9 2.3 2.3-1.9c2.1-1.8 2.7-2.6 1.9-2.6-.2 0-1.2 1-2.3 2.2M.2 44.5c0 1.6.2 2.2.5 1.2.2-.9.2-2.3 0-3-.3-.6-.5.1-.5 1.8M251 42.9c0 1.2 2.8 2.2 3.5 1.2.3-.5-.2-1.2-1.1-1.5-2.1-.8-2.4-.8-2.4.3m204.1 3.7c0 1.1.3 1.4.6.6.3-.7.2-1.6-.1-1.9-.3-.4-.6.2-.5 1.3m-186.8.9c0 .8.4 1.2.9.9s.6-1 .3-1.5c-.9-1.3-1.2-1.1-1.2.6m337.9 1c-1.3.7-1.9 1.5-1.4 1.9.5.3 1.7-.3 2.7-1.4 2.1-2.3 1.9-2.3-1.3-.5m-323.1 7.1c0 1.1.3 1.4.6.6.3-.7.2-1.6-.1-1.9-.3-.4-.6.2-.5 1.3m172 1c0 1.1.3 1.4.6.6.3-.7.2-1.6-.1-1.9-.3-.4-.6.2-.5 1.3m-14.5 4.2c-.3.5.1.9.9.9s1.5-.4 1.5-.9c0-.4-.4-.8-.9-.8-.6 0-1.2.4-1.5.8M624 76c.8.5 2 1 2.5 1 .6 0 .3-.5-.5-1s-1.9-1-2.5-1c-.5 0-.3.5.5 1M481 87.4c0 .2.8 1 1.8 1.7 1.5 1.3 1.6 1.2.3-.4s-2.1-2.1-2.1-1.3M193.1 91c-1.9 1.6-3.2 3.2-3 3.5.3.2 2.1-1.1 3.9-3 4.1-4.2 3.7-4.5-.9-.5m198.5-.8c.3.5 1 .6 1.5.3 1.3-.9 1.1-1.2-.6-1.2-.8 0-1.2.4-.9.9M377.5 94c.3.5.8 1 1.1 1 .2 0 .4-.5.4-1 0-.6-.5-1-1.1-1-.5 0-.7.4-.4 1m335 14.1c-.4.6-.5 1.2-.2 1.5.2.3.7-.2 1-1.1.7-1.7.1-2-.8-.4M659.2 119c-.9 1.5-.9 2.1.1 2.6.6.4.9.4.5-.1-.4-.4-.3-1.4.4-2.2.6-.7.9-1.5.7-1.8-.3-.2-1 .4-1.7 1.5m-199.7 7c-.3.6.1.7.9.4 1.8-.7 2.1-1.4.7-1.4-.6 0-1.3.4-1.6 1m209.5 9.1c0 .5 1.1.9 2.5.9s2.5-.2 2.5-.4-1.1-.6-2.5-.8c-1.4-.3-2.5-.1-2.5.3m-407.7 48.1c-1.5 2-2.5 3.8-2 3.8.3 0 1.2-1.1 2.1-2.5 1.7-2.6 1.6-3.5-.1-1.3m-44.5 5.5c.7.3 1.6.2 1.9-.1.4-.3-.2-.6-1.3-.5-1.1 0-1.4.3-.6.6m516.5 9.5c-2 2.6-2.3 3.7-1.3 4.3.6.4.9.3.8-.2-.1-.4.3-1.8 1-3.1 1.4-2.4 1-3-.5-1M121 222.4c.7.7 1.3.7 2 0 .6-.6.3-1-1-1s-1.6.4-1 1m575.6 3.3c-.6 1.4-.5 1.5.5.6.7-.7 1-1.5.7-1.8s-.9.2-1.2 1.2m15.3 1c-1.3 1.6-1.2 1.7.4.4s2.1-2.1 1.3-2.1c-.2 0-1 .8-1.7 1.7M109.5 235c-.3.6.1.7.9.4 1.8-.7 2.1-1.4.7-1.4-.6 0-1.3.4-1.6 1m-24.7 15.8c-1.1 1.3-1.1 1.4.2.7.8-.5 2.5-.8 3.8-.6 3 .3 2.8-.5-.3-1.1-1.5-.3-3 .1-3.7 1M32 252.9c0 .6.4 1.3 1 1.6s.7-.1.4-.9c-.7-1.8-1.4-2.1-1.4-.7m702.6.9c-.2.4-.1 1.4.5 2.2.7 1.2.9 1 .9-.8 0-2.3-.5-2.8-1.4-1.4M63 274.9c0 .6.4 1.3 1 1.6s.7-.1.4-.9c-.7-1.8-1.4-2.1-1.4-.7m658.5 12.2c-.4.6-.5 1.2-.2 1.5.2.3.7-.2 1-1.1.7-1.7.1-2-.8-.4m-.3 4.9c0 1.4.2 1.9.5 1.2.2-.6.2-1.8 0-2.5-.3-.6-.5-.1-.5 1.3M8.8 302.7c1 .4.9 1-.5 2.7l-1.8 2.1 2.3-1.9c2.6-2.3 2.8-3.6.5-3.5-1.2 0-1.3.2-.5.6m56 2c.7.3 1.6.2 1.9-.1.4-.3-.2-.6-1.3-.5-1.1 0-1.4.3-.6.6M2.5 307c-.3.6.1.7.9.4 1.8-.7 2.1-1.4.7-1.4-.6 0-1.3.4-1.6 1m701.5 1c0 .5.5 1 1.1 1 .5 0 .7-.5.4-1-.3-.6-.8-1-1.1-1-.2 0-.4.4-.4 1m29.7 38c.3 1.1.9 2 1.4 2 .4 0 .7-.9.6-2s-.7-2-1.3-2c-.7 0-1 .8-.7 2m-472.1 68.3c.3 1 .9 1.5 1.2 1.2s0-1.1-.7-1.8c-1-.9-1.1-.8-.5.6M399 432c-.8.5-1 1-.5 1 .6 0 1.7-.5 2.5-1s1.1-1 .5-1c-.5 0-1.7.5-2.5 1m111.4 31.6c-1.8 1.4-1.8 1.5.4.4 1.2-.6 2.2-1.3 2.2-1.5 0-.8-.5-.6-2.6 1.1m189.5 3.1c-1.3 1.6-1.2 1.7.4.4s2.1-2.1 1.3-2.1c-.2 0-1 .8-1.7 1.7M81.5 473c-.3.5-.1 1 .4 1 .6 0 1.1-.5 1.1-1 0-.6-.2-1-.4-1-.3 0-.8.4-1.1 1m630.4 6.7-3.4 3.8 3.8-3.4c3.4-3.3 4.2-4.1 3.4-4.1-.2 0-1.9 1.7-3.8 3.7m-192.3 8.6c.3 1 .9 1.5 1.2 1.2s0-1.1-.7-1.8c-1-.9-1.1-.8-.5.6M49 494.9c0 .6.4 1.3 1 1.6s.7-.1.4-.9c-.7-1.8-1.4-2.1-1.4-.7m417.1.2c-1.8.6-3.2 1.2-3 1.3.8.7 6.9-.7 6.9-1.5 0-.5-.1-.9-.2-.8-.2 0-1.8.5-3.7 1m4.9-.1c0 .9 3.9 2.5 4.5 1.8.2-.2-.7-.8-2.1-1.5-1.3-.6-2.4-.7-2.4-.3M1.6 499.7c-.6 1.4-.5 1.5.5.6.7-.7 1-1.5.7-1.8s-.9.2-1.2 1.2m518.9 6.3c-.3.5-.1 1 .4 1 .6 0 1.1-.5 1.1-1 0-.6-.2-1-.4-1-.3 0-.8.4-1.1 1m-37.9 2.2c.3.5 1 .6 1.5.3 1.3-.9 1.1-1.2-.6-1.2-.8 0-1.2.4-.9.9m7.9 6.8c2.7 2.7 5.1 5 5.4 5s-1.7-2.3-4.4-5c-2.7-2.8-5.1-5-5.4-5s1.7 2.2 4.4 5m215.5 1.9c0 1 1.9 2.5 2.5 2 .1-.2-.3-1-1.1-1.7s-1.4-.8-1.4-.3m24.2 1.5c.7.8 1.5 1.2 1.7 1.1.5-.6-1-2.5-2-2.5-.5 0-.4.6.3 1.4M500 522.3c1.7 1.6 12 6 12.6 5.5.2-.3-2.9-1.9-6.9-3.6-3.9-1.8-6.5-2.6-5.7-1.9m212.6 1c.3 1 .9 1.5 1.2 1.2s0-1.1-.7-1.8c-1-.9-1.1-.8-.5.6M729 525c-.9.6-1 1-.3 1 .6 0 1.5-.5 1.8-1 .8-1.2.4-1.2-1.5 0m-11.4 3.7c1 1 1.7 1 3.8-.1 2.7-1.3 2.7-1.3-1.2-1.2-3.1 0-3.6.3-2.6 1.3m-189 3.8c.4.8.8 1.5 1 1.5s.4-.7.4-1.5-.4-1.5-1-1.5c-.5 0-.7.7-.4 1.5m-6 7.4c-.4.5.3.7 1.4.4 2.3-.6 2.6-1.3.6-1.3-.8 0-1.7.4-2 .9m-156.8 3.8c.6.2 1.8.2 2.5 0 .6-.3.1-.5-1.3-.5s-1.9.2-1.2.5M358 545c-.8.5-1 1-.5 1 .6 0 1.7-.5 2.5-1s1.1-1 .5-1c-.5 0-1.7.5-2.5 1m373.9 9.7c-1.3 1.6-1.2 1.7.4.4s2.1-2.1 1.3-2.1c-.2 0-1 .8-1.7 1.7m-389.1 4c.7.3 1.6.2 1.9-.1.4-.3-.2-.6-1.3-.5-1.1 0-1.4.3-.6.6m323.6 6.5-1.9 2.3 2.3-1.9c1.2-1.1 2.2-2.1 2.2-2.3 0-.8-.8-.2-2.6 1.9m21.6-.2c0 1.3 1.8 2.2 2.4 1.1.3-.5-.1-1.1-.9-1.5-.8-.3-1.5-.1-1.5.4m32.1 6.6c0 1.1.3 1.4.6.6.3-.7.2-1.6-.1-1.9-.3-.4-.6.2-.5 1.3m-31.5 12.1c-.6 1.4-.5 1.5.5.6.7-.7 1-1.5.7-1.8s-.9.2-1.2 1.2m-1.9 3.7c-.4 1-.1 1.3.8.9.8-.3 1.2-.9.9-1.4-.7-1.2-1.1-1.1-1.7.5m12.9 3.9c.3 1 .9 1.5 1.2 1.2s0-1.1-.7-1.8c-1-.9-1.1-.8-.5.6m-11.2 27.9-1.9 2.3 2.3-1.9c1.2-1.1 2.2-2.1 2.2-2.3 0-.8-.8-.2-2.6 1.9m46 8.1c0 .7-3.5 4.3-7.9 8.1s-8.6 7.5-9.4 8.2c-1.1 1 0 2.9 7.3 11.4 4.7 5.6 8.3 10.7 7.9 11.2-.3.7-.1.8.5.4.6-.3 1.6.2 2.2 1.1.9 1.6 1 1.6.8.1-.2-.9-4.3-6.5-9.2-12.3l-8.9-10.7 3.9-3.4c2.1-1.8 6.2-5.2 9.1-7.6 5.1-4.2 6.2-6.1 4.4-7.2-.5-.3-.8 0-.7.7M497 648c-.9.6-1 1-.3 1 .6 0 1.5-.5 1.8-1 .8-1.2.4-1.2-1.5 0m-8 27.1c0 .5.5.7 1 .4.6-.3 1-.8 1-1.1 0-.2-.4-.4-1-.4-.5 0-1 .5-1 1.1m-21.9 13.5c0 1.1.3 1.4.6.6.3-.7.2-1.6-.1-1.9-.3-.4-.6.2-.5 1.3m1.9 23.3c0 .6.4 1.3 1 1.6s.7-.1.4-.9c-.7-1.8-1.4-2.1-1.4-.7m144 1.5c0 .2.7.9 1.5 1.6 1.3 1.1 1.4 1 .9-.4s-2.4-2.3-2.4-1.2m-26 5.1c0 .5 1 2.1 2.1 3.5 1.3 1.7 1.7 1.8 1 .5-1.7-3.3-3.1-5.1-3.1-4m15.2 12.3c-5.7 2.6-9.9 4.8-9.3 5 .5.2 4.1-1 7.8-2.7 12.9-5.6 12-5.6 14.9-1.1 1.5 2.2 2.9 3.9 3.1 3.6.5-.4-5-9.5-5.7-9.5-.3 0-5.1 2.1-10.8 4.7m-23.6-2c-.3.6.3 2.1 1.4 3.3 2.3 2.8 2.5 2.2.6-1.6-.8-1.4-1.7-2.2-2-1.7m-43.1 6.2c-.3.6.1.7.9.4 1.8-.7 2.1-1.4.7-1.4-.6 0-1.3.4-1.6 1"/>
</svg>
